<?xml version="1.0" encoding="UTF-8"?>
<svg version="1.1" xmlns="http://www.w3.org/2000/svg" width="1536" height="1024">
<path d="M0 0 C506.88 0 1013.76 0 1536 0 C1536 337.92 1536 675.84 1536 1024 C1029.12 1024 522.24 1024 0 1024 C0 686.08 0 348.16 0 0 Z " fill="#FDFDFD" transform="translate(0,0)"/>
<path d="M0 0 C3.59899531 0.04348994 7.19782981 0.02854977 10.79701424 0.02097726 C17.02109452 0.01575259 23.24412047 0.04692504 29.46793556 0.10335565 C38.46615487 0.18488801 47.46386829 0.21069635 56.46241692 0.22323556 C71.06429925 0.24508132 85.66562056 0.31151925 100.26719856 0.40626168 C114.44490454 0.49815773 128.62245772 0.56888972 142.80040169 0.61133981 C144.11293771 0.61528066 144.11293771 0.61528066 145.45198962 0.61930113 C149.842058 0.63235221 154.23212745 0.64498912 158.62219763 0.65742016 C194.99915469 0.76096125 231.3750732 0.945242 267.75157356 1.16065621 C267.75157356 26.90065621 267.75157356 52.64065621 267.75157356 79.16065621 C289.53157356 79.16065621 311.31157356 79.16065621 333.75157356 79.16065621 C334.41157356 77.51065621 335.07157356 75.86065621 335.75157356 74.16065621 C336.98155403 72.2104609 336.98155403 72.2104609 338.36876106 70.33253121 C338.88752815 69.62346627 339.40629524 68.91440133 339.94078255 68.18384957 C340.49709358 67.43369576 341.05340462 66.68354196 341.62657356 65.91065621 C342.80314117 64.30315856 343.97890296 62.69507084 345.15391731 61.08643746 C346.05086311 59.86174752 346.05086311 59.86174752 346.96592903 58.61231637 C349.74291456 54.79956157 352.4699717 50.95231592 355.18907356 47.09815621 C355.66006477 46.43332223 356.13105598 45.76848825 356.61631966 45.08350778 C357.07216438 44.4373652 357.52800911 43.79122262 357.99766731 43.12549996 C358.43449333 42.5277073 358.87131935 41.92991464 359.32138252 41.31400704 C360.80915579 39.19872891 360.80915579 39.19872891 361.804842 36.83561349 C363.1879208 34.06001177 364.42412597 32.22906657 366.75157356 30.16065621 C371.75174215 28.88293172 376.66349338 29.11028043 381.77501106 29.28174996 C383.24613224 29.29855226 384.71730403 29.3113558 386.18849373 29.32033944 C390.04664722 29.35458081 393.90171377 29.4428648 397.75865364 29.54267526 C401.69987918 29.63501916 405.64160753 29.67590526 409.58360481 29.72120309 C417.30766317 29.8175072 425.02918465 29.97094476 432.75157356 30.16065621 C433.05321419 29.21827096 433.35485481 28.27588571 433.66563606 27.30494332 C436.95231485 17.78850085 445.19980852 11.35137714 454.00547981 7.06299996 C464.73414023 2.93659211 475.49271912 5.13081405 485.68907356 9.59815621 C493.431073 13.59655592 499.08027975 20.06845663 502.75157356 27.97315621 C505.87194609 37.91934366 505.50904384 47.43049065 501.75157356 57.16065621 C496.07511757 67.69798544 488.16795505 74.02186238 476.77110481 77.82081246 C465.55914292 79.70754493 455.72561612 78.00394581 446.21641731 71.99659371 C439.6139337 67.07873746 435.88988987 61.69514316 432.75157356 54.16065621 C425.20851824 53.88095707 417.6668052 53.68880441 410.11973763 53.55640817 C407.55477628 53.50120419 404.99015935 53.4262195 402.42637825 53.33082223 C398.73182982 53.19682678 395.04186428 53.1348971 391.34532356 53.08643746 C389.63548286 53.00127625 389.63548286 53.00127625 387.89109993 52.91439462 C382.93525011 52.91058392 379.96944394 52.98632973 376.30362129 56.52108407 C374.24988848 59.3212403 372.47872597 62.15054943 370.75157356 65.16065621 C369.70875443 66.70220029 368.65520744 68.23663651 367.58360481 69.75831246 C366.09312819 71.95671765 364.60765872 74.15839943 363.12462044 76.36182809 C362.04088004 77.95928066 360.91526595 79.52872722 359.76060677 81.07569528 C358.06863866 83.67378848 356.98786488 85.92074724 355.81089973 88.75342965 C353.11454608 94.43950277 350.29394286 98.9374113 344.75157356 102.16065621 C332.89993124 105.05623702 320.2495935 103.94078333 308.1646595 103.39661813 C303.60723997 103.21108004 299.04802425 103.1299861 294.48790169 103.03956246 C285.57105425 102.84760762 276.6622254 102.5412611 267.75157356 102.16065621 C267.83912785 105.18278876 267.94608419 108.20218302 268.06407356 111.22315621 C268.08663216 112.07071481 268.10919075 112.9182734 268.13243294 113.79151559 C268.36466904 119.25962022 269.14652242 123.31719076 271.75157356 128.16065621 C274.74157592 129.65565739 277.45140757 129.28324374 280.78761482 129.28091073 C281.52027954 129.28176516 282.25294427 129.28261958 283.00781095 129.2834999 C285.4753201 129.28515368 287.94276203 129.27963498 290.41026497 129.2741816 C292.17408433 129.27389968 293.93790381 129.27405756 295.7017231 129.27462411 C300.50104859 129.2749119 305.30034927 129.26901816 310.09966898 129.26205015 C315.11118921 129.25581353 320.12270996 129.25521257 325.13423347 129.25402474 C334.62919321 129.25091234 344.12414148 129.24270018 353.61909616 129.23267525 C364.42667417 129.2215113 375.23425273 129.21600295 386.04183507 129.21097982 C408.27842098 129.20051749 430.51499655 129.18291981 452.75157356 129.16065621 C453.16117821 128.33097833 453.16117821 128.33097833 453.57905769 127.48453927 C453.93811195 126.76100259 454.29716621 126.03746591 454.66710091 125.29200387 C455.02267067 124.57388528 455.37824043 123.85576669 455.74458504 123.11588693 C459.92164525 115.0054505 467.2861421 110.39408916 475.55235481 107.01612496 C484.50939585 104.62101875 495.72813982 105.01629281 504.25938606 108.71143746 C513.41339937 114.03453924 520.38866333 122.07192552 523.75157356 132.16065621 C524.80009345 143.56999879 524.89804034 154.47122596 517.69297981 163.83643746 C510.34319096 172.40086258 502.96741968 177.65353959 491.59141731 178.55518746 C481.60787132 179.04989642 474.24016154 177.88839276 465.75157356 172.16065621 C465.14055794 171.77780465 464.52954231 171.39495309 463.90001106 171.00049996 C458.50921285 167.14400585 454.81465656 160.34990522 452.75157356 154.16065621 C451.83827341 154.15826786 450.92497326 154.15587951 449.98399734 154.15341878 C427.74045289 154.09423025 405.49701643 154.01865541 383.25358963 153.9249413 C372.49674269 153.8800148 361.73992863 153.84059285 350.98301888 153.81422067 C341.60506938 153.79121515 332.22722421 153.75778852 322.84935749 153.71195465 C317.88587079 153.68805695 312.92248719 153.66930553 307.95894432 153.66304231 C303.28201199 153.65697586 298.60534331 153.63691969 293.92850876 153.6063807 C292.21696685 153.59762545 290.50539044 153.59387266 288.79382706 153.59564805 C276.43812268 153.60441374 265.05529841 153.32402314 255.75157356 144.16065621 C229.45730552 112.93621291 245.75157356 38.81429083 245.75157356 19.16065621 C162.59157356 19.16065621 79.43157356 19.16065621 -6.24842644 19.16065621 C-6.24842644 49.19065621 -6.24842644 79.22065621 -6.24842644 110.16065621 C-43.20842644 110.16065621 -80.16842644 110.16065621 -118.24842644 110.16065621 C-118.21362175 127.26135934 -118.17881706 144.36206246 -118.14295769 161.98096871 C-118.12761034 172.88201177 -118.11304211 183.78304687 -118.10194206 194.68409371 C-118.09607093 200.42074762 -118.09001019 206.15740128 -118.08363152 211.89405465 C-118.08284027 212.6127734 -118.08204902 213.33149215 -118.0812338 214.07199025 C-118.0682853 225.58387268 -118.04469062 237.09570885 -118.01696805 248.60756411 C-117.98863322 260.47513494 -117.97219188 272.34268205 -117.96616095 284.21028531 C-117.96246041 290.85366231 -117.95338712 297.496956 -117.93123627 304.1403048 C-117.77251035 353.68416768 -119.20957948 402.3019431 -133.24842644 450.16065621 C-101.70777924 449.6361861 -70.26991999 448.28829638 -39.24842644 442.16065621 C-38.15546257 441.95070016 -37.0624987 441.7407441 -35.93641472 441.52442575 C27.7679512 429.16414508 88.04521425 402.16727551 138.00450325 360.60352731 C139.53351248 359.34074858 141.08240404 358.10212303 142.63438606 356.86768746 C151.12031972 350.11693725 158.92325406 342.65139598 166.75157356 335.16065621 C167.57141731 334.38335153 168.39126106 333.60604684 169.23594856 332.80518746 C173.72349715 328.45226533 177.63825255 323.73431999 181.54844856 318.85987496 C183.46764885 316.50851433 185.44670696 314.26751763 187.50157356 312.03565621 C193.71106789 305.12109978 199.1987083 297.60356506 204.75157356 290.16065621 C205.20854622 289.55028512 205.66551888 288.93991403 206.13633919 288.31104684 C214.00318882 277.74630947 220.96388176 266.59923628 227.46251106 255.14503121 C234.95164564 241.98732516 245.09505184 233.11967439 259.71641731 228.66846871 C264.45188073 227.48687515 268.75558298 227.03817725 273.65318489 227.04713082 C274.32691139 227.0469848 275.00063789 227.04683877 275.69478035 227.04668832 C277.90775531 227.04738149 280.12064467 227.05514586 282.33360481 227.06299996 C283.87345522 227.06486626 285.41330621 227.06628916 286.95315742 227.06728768 C290.99568015 227.0710962 295.03816666 227.0809122 299.08067513 227.09199166 C303.20990191 227.10224166 307.33913458 227.10679298 311.46837044 227.11182809 C319.56278806 227.12253602 327.6571763 227.13959235 335.75157356 227.16065621 C336.50563801 231.36892857 336.80479251 235.01711572 336.43907356 239.28565621 C336.36044075 240.29885934 336.28180794 241.31206246 336.20079231 242.35596871 C335.76750074 245.0612152 335.02331632 246.77306382 333.75157356 249.16065621 C332.84004021 249.16874307 331.92850685 249.17682992 330.98935127 249.18516183 C322.38246768 249.26322986 313.77573792 249.35055727 305.16905308 249.4481833 C300.74468726 249.49804522 296.32034416 249.54437589 291.89586067 249.58253121 C287.62284731 249.619512 283.35002874 249.66590609 279.07718277 249.71871972 C277.45021749 249.73719588 275.82321057 249.75232864 274.19618225 249.76400018 C271.91032698 249.78097932 269.62491125 249.81004095 267.33922005 249.84180856 C265.39063339 249.86179406 265.39063339 249.86179406 263.40268135 249.88218331 C257.25204262 250.35129743 252.0798357 251.68695353 247.56797981 255.92628121 C234.28030251 272.27155308 230.16025861 296.81252712 227.75157356 317.16065621 C227.59181038 318.39275826 227.4320472 319.62486032 227.2674427 320.89429879 C225.55051755 334.63298305 225.12962779 348.37856869 224.72252083 362.20826364 C224.39988244 372.84527412 223.96395155 383.38344427 222.38047981 393.91846871 C222.26785301 394.69903131 222.15522621 395.4795939 222.03918648 396.2838099 C221.3620538 400.34805545 220.62681585 403.19665142 217.62657356 406.09815621 C216.02626126 407.15727199 214.39589081 408.17123896 212.75157356 409.16065621 C211.54344754 410.03039668 210.34364773 410.91175973 209.15001106 411.80128121 C182.46962717 431.54108346 152.78776553 445.72338028 121.75157356 457.16065621 C120.59657356 457.5892695 119.44157356 458.01788278 118.25157356 458.45948434 C110.66556438 461.22904606 103.06105159 463.60971282 95.25157356 465.66065621 C94.13572884 465.95689889 93.01988411 466.25314157 91.87022591 466.55836129 C82.05606477 469.13557143 72.20128338 471.48085895 62.28087044 473.61085153 C59.91676473 474.12474786 57.56098443 474.66691561 55.20469856 475.21534371 C40.99874384 478.40549573 26.55519393 479.8114497 12.09532356 481.32862496 C11.43327919 481.39824441 10.77123482 481.46786386 10.08912849 481.53959298 C7.97743009 481.75610844 5.86484349 481.96005629 3.75157356 482.16065621 C2.86064507 482.24833764 1.96971657 482.33601907 1.05179024 482.42635751 C-6.70433576 483.13997261 -14.41122423 483.35098669 -22.19764519 483.39893746 C-23.51293709 483.408686 -24.82822899 483.41843453 -26.18337822 483.42847848 C-30.43421816 483.45580216 -34.68500856 483.46691777 -38.93592644 483.47315621 C-39.66044502 483.47445409 -40.38496361 483.47575196 -41.1314373 483.47708917 C-134.3624729 483.60363298 -134.3624729 483.60363298 -163.24842644 469.16065621 C-161.60820651 463.47202789 -159.82202973 457.8876904 -157.74964714 452.34229684 C-139.93141248 404.16504714 -140.80225591 350.09783479 -140.96659975 299.4956045 C-140.99003313 291.81341548 -140.98430577 284.13127529 -140.97871208 276.44906259 C-140.97699157 273.56704267 -140.97550404 270.68502269 -140.974123 267.8030026 C-140.97377728 267.0838198 -140.97343157 266.36463701 -140.97307537 265.6236608 C-140.969684 257.5187206 -140.97334987 249.41378773 -140.97938347 241.30884957 C-140.97992553 240.57142765 -140.98046759 239.83400572 -140.98102608 239.07423768 C-140.99045693 227.04055047 -141.01588249 215.00692871 -141.04428408 202.97327384 C-141.0729346 190.54530129 -141.07474045 178.11750217 -141.05406785 165.68951422 C-141.04241247 158.05711909 -141.05298285 150.42540776 -141.09268579 142.79310379 C-141.12098385 136.96855206 -141.11308763 131.14440803 -141.09170151 125.31981492 C-141.08879654 122.93451061 -141.09789725 120.54915703 -141.11986542 118.16395211 C-141.14812772 114.90932193 -141.13339901 111.65760104 -141.10798454 108.40301156 C-141.12652984 107.45965689 -141.14507514 106.51630223 -141.16418242 105.54436105 C-141.07454584 100.49844452 -140.46298071 97.8149201 -136.85705757 94.1599133 C-135.67619802 93.13424831 -134.47480849 92.13143169 -133.24842644 91.16065621 C-132.39119987 90.42460153 -131.53397331 89.68854684 -130.65077019 88.93018746 C-129.83737175 88.28436715 -129.02397331 87.63854684 -128.18592644 86.97315621 C-123.85087466 83.48020752 -119.59133399 79.91796964 -115.37342644 76.28565621 C-114.18206862 75.26086032 -112.99066224 74.23612089 -111.79920769 73.21143746 C-111.20962273 72.7043525 -110.62003777 72.19726754 -110.01258659 71.67481637 C-103.34109721 65.94874701 -96.63334329 60.26886348 -89.81092644 54.72315621 C-84.94998943 50.76789597 -80.19435084 46.70092151 -75.44886589 42.6088984 C-71.84296698 39.5063899 -68.19647819 36.46607098 -64.49842644 33.47315621 C-60.98958653 30.6260712 -57.58976006 27.7025307 -54.24842644 24.66065621 C-50.01944565 20.81188348 -45.69366239 17.13677516 -41.17674446 13.62887788 C-38.22737715 11.28573493 -38.22737715 11.28573493 -36.07081032 8.56751084 C-26.37036064 -2.01744693 -13.38302952 -0.20303905 0 0 Z " fill="#16717E" transform="translate(596.2484264373779,250.83934378623962)"/>
<path d="M0 0 C1.27230469 0.00902344 2.54460937 0.01804687 3.85546875 0.02734375 C5.31919922 0.04474609 5.31919922 0.04474609 6.8125 0.0625 C6.73386719 1.031875 6.65523437 2.00125 6.57421875 3 C6.18304431 14.00975719 9.58646214 19.70796994 16.9296875 27.66015625 C17.56124756 28.29638916 18.19280762 28.93262207 18.84350586 29.58813477 C20.59010281 31.78302132 21.39881568 33.31162305 22.43969727 35.84741211 C24.69473668 40.7076072 27.04558057 44.39330389 31.8125 47.0625 C42.7295045 49.64624722 54.34489285 48.846478 65.48071289 48.55603027 C69.6905877 48.46240044 73.90056903 48.45473933 78.11132812 48.43945312 C86.34751974 48.39707569 94.57858036 48.26029965 102.8125 48.0625 C102.95494141 47.28310059 103.09738281 46.50370117 103.24414062 45.70068359 C105.0495299 37.32051328 111.92685845 31.52199268 118.8125 27.0625 C119.47765625 26.62679687 120.1428125 26.19109375 120.828125 25.7421875 C129.08323303 21.23653693 140.42017726 21.89226368 149.3125 24.1875 C159.61927755 27.89932106 167.45877212 36.46595959 172.0859375 46.203125 C175.32823024 54.50060534 174.96775982 64.15652492 171.75 72.375 C167.10236162 82.12465482 161.55311376 88.28615402 151.8125 93.0625 C151.07128906 93.43375 150.33007812 93.805 149.56640625 94.1875 C140.17295443 97.17208611 128.95803729 96.25473172 120.125 92.125 C112.54579656 87.72445781 106.94604851 82.84075349 104.21557617 74.39990234 C103.81890999 73.18214615 103.81890999 73.18214615 103.41423035 71.93978882 C103.11637383 71.01053085 103.11637383 71.01053085 102.8125 70.0625 C101.8140657 70.09802979 100.81563141 70.13355957 99.78694153 70.17016602 C90.32957728 70.49598109 80.87336458 70.73502839 71.41164112 70.89149475 C66.54782784 70.97465432 61.68857826 71.08718673 56.82739258 71.26953125 C52.12609143 71.44475346 47.42914506 71.53930668 42.72482872 71.58053589 C40.94020688 71.60986783 39.15579673 71.66716099 37.37305641 71.75418091 C23.76295617 72.39145797 23.76295617 72.39145797 18.72625351 68.41571045 C14.45562715 64.08897188 10.99249705 59.23015264 7.8125 54.0625 C7.81030016 54.89212549 7.81030016 54.89212549 7.80805588 55.73851109 C7.77083055 69.2631489 7.7113628 82.78753622 7.62859726 96.31197453 C7.58922834 102.85260528 7.55698797 109.39310352 7.54150391 115.93383789 C7.52626763 122.25584134 7.49169863 128.57748023 7.44419098 134.8993206 C7.42944888 137.30118056 7.42146315 139.70309259 7.42061615 142.10499763 C7.40597708 162.81831622 6.07320051 180.55419819 -8.9375 196.375 C-13.94534287 201.09046881 -19.22844443 204.66044749 -25.1875 208.0625 C-25.7949707 208.41747559 -26.40244141 208.77245117 -27.02832031 209.13818359 C-47.81892527 221.26689122 -69.49190636 231.09637286 -92.1875 239.0625 C-93.62246826 239.58021973 -93.62246826 239.58021973 -95.08642578 240.10839844 C-178.20515109 270.05982542 -273.74840631 269.43799166 -372.08203125 240.46875 C-376.36665067 238.97380491 -380.70249433 237.69256501 -385.0625 236.4375 C-391.83243019 234.48550606 -398.52552389 232.36017577 -405.1875 230.0625 C-401.30496179 228.66649688 -398.02747677 229.35949446 -394.01171875 229.98828125 C-392.5459045 230.20997024 -391.07999857 230.43105367 -389.61401367 230.65161133 C-388.84270111 230.77001373 -388.07138855 230.88841614 -387.27670288 231.01040649 C-369.61439376 233.69165539 -352.05842306 235.49833702 -334.1875 236.0625 C-333.47198975 236.08548157 -332.75647949 236.10846313 -332.01928711 236.13214111 C-284.23891532 237.58094334 -236.53819305 232.33086436 -190.15966797 220.79052734 C-187.22907793 220.07268444 -184.29126543 219.40048221 -181.34765625 218.73828125 C-146.18476493 210.661115 -111.2228948 196.39966559 -80.1875 178.0625 C-79.36749512 177.57958496 -78.54749023 177.09666992 -77.70263672 176.59912109 C-68.51534604 171.1298435 -59.71799319 165.1969056 -51.1875 158.75 C-50.42727539 158.18748535 -49.66705078 157.6249707 -48.88378906 157.04541016 C-41.20662811 151.07760334 -39.85769716 144.99094517 -38.56298828 135.63476562 C-37.92186997 129.53538774 -37.75627921 123.44099775 -37.625 117.3125 C-37.27772393 102.99290384 -37.27772393 102.99290384 -36.41723633 96.16894531 C-36.0796796 93.07389804 -35.99771676 89.98124666 -35.89697266 86.87084961 C-35.37382734 71.0268041 -33.53829971 55.33580945 -29.1875 40.0625 C-28.76017111 38.41837022 -28.3345542 36.77379503 -27.91015625 35.12890625 C-20.68190904 7.7407603 -20.68190904 7.7407603 -10.1875 1.0625 C-6.62704823 -0.12431726 -3.74941663 -0.03439832 0 0 Z " fill="#03638F" transform="translate(863.1875,506.9375)"/>
<path d="M0 0 C3.34616759 2.29526183 5.26491938 4.32617314 7.5 7.71484375 C8.0775 8.53984375 8.655 9.36484375 9.25 10.21484375 C10.74205718 13.1989581 11.19097268 15.37734865 11.5 18.71484375 C11.58765625 19.50890625 11.6753125 20.30296875 11.765625 21.12109375 C12.27068165 29.11017173 10.31786346 35.32845932 5.5 41.71484375 C3.27019532 44.07115037 0.8688295 46.221108 -1.54077148 48.39135742 C-9.29776757 55.54319365 -16.79372506 62.92292639 -24.22680664 70.4074707 C-24.8017952 70.98606885 -25.37678375 71.564667 -25.9691962 72.16079843 C-29.01168888 75.22310754 -32.05205712 78.28751401 -35.09120369 81.35314369 C-38.98402698 85.27911651 -42.88325752 89.19868544 -46.78379822 93.11698914 C-48.12872928 94.46817739 -49.47365897 95.81936701 -50.8185873 97.17055798 C-51.49087994 97.84596673 -52.16317257 98.52137549 -52.8558377 99.21725118 C-61.90783577 108.31202569 -70.95489169 117.4116444 -79.98803711 126.52514648 C-86.12395216 132.71554451 -92.2687237 138.89699989 -98.42376608 145.06838197 C-101.66777809 148.32174227 -104.90708022 151.57949804 -108.13545418 154.84838295 C-111.1610522 157.91186405 -114.19813642 160.963469 -117.24435425 164.00644302 C-118.35648037 165.1215329 -119.4643401 166.24089737 -120.56747246 167.36488533 C-128.19908966 175.1343044 -133.97895814 180.10956854 -145.375 180.21484375 C-147.04175781 180.26125 -147.04175781 180.26125 -148.7421875 180.30859375 C-161.13873853 178.34988714 -168.94940342 169.0009396 -177.37109375 160.5078125 C-178.78378223 159.09849772 -180.19721176 157.68992542 -181.61134338 156.28205872 C-184.56020361 153.34053861 -187.49991028 150.39024605 -190.43334961 147.43334961 C-194.18448629 143.65367555 -197.95769962 139.89696731 -201.73803616 136.14652538 C-204.65625191 133.24641457 -207.56240848 130.33445396 -210.46510506 127.41881752 C-211.85165089 126.0289493 -213.2418846 124.64274962 -214.63592339 123.26039696 C-216.58404261 121.32504393 -218.51530841 119.37426114 -220.44311523 117.41870117 C-221.30104172 116.57595642 -221.30104172 116.57595642 -222.17630005 115.71618652 C-228.72950431 108.98805188 -230.48645956 100.9629665 -230.5 91.71484375 C-229.91077563 85.68332887 -227.44469127 80.30279403 -223.5 75.71484375 C-214.59326774 68.49866876 -206.55674779 67.9923236 -195.5 68.71484375 C-188.44843577 70.1792261 -183.83654051 76.08678605 -179.05078125 81.09375 C-177.11315302 83.08478911 -175.23169605 84.87096182 -173.0625 86.58984375 C-170.5 88.71484375 -170.5 88.71484375 -168.625 91.08984375 C-166.8069653 93.33565132 -165.11879224 94.98154204 -162.9375 96.83984375 C-157.48609537 101.48744959 -152.51981294 106.61198244 -147.5 111.71484375 C-144.30823329 110.3060404 -142.16916398 108.63160916 -139.71180725 106.16716003 C-138.97308884 105.43119095 -138.23437042 104.69522186 -137.4732666 103.93695068 C-136.67263794 103.12913147 -135.87200928 102.32131226 -135.04711914 101.48901367 C-134.19625229 100.63843887 -133.34538544 99.78786407 -132.46873474 98.91151428 C-130.13861483 96.58024011 -127.81302239 94.24461583 -125.48932195 91.90695357 C-123.05290333 89.45801015 -120.61079861 87.01475034 -118.16929626 84.57087708 C-113.54249971 79.93786364 -108.92082188 75.29977869 -104.30096477 70.6598466 C-99.06127761 65.39787741 -93.81597971 60.14151686 -88.57016575 54.88565671 C-79.59647052 45.89458681 -70.62699624 36.89932832 -61.66226196 27.89932251 C-50.16424027 16.35648457 -50.16424027 16.35648457 -47.4140625 13.8125 C-46.8792627 13.31741943 -46.34446289 12.82233887 -45.79345703 12.31225586 C-43.53163906 10.23147599 -41.2664975 8.15441735 -38.99609375 6.08300781 C-37.77266203 4.96419068 -36.55706035 3.83681661 -35.34375 2.70703125 C-24.87712261 -6.76050898 -12.12599547 -6.85312244 0 0 Z " fill="#60B129" transform="translate(846.5,408.28515625)"/>
<path d="M0 0 C1.27187416 -0.03674583 1.27187416 -0.03674583 2.56944275 -0.07423401 C3.4967218 -0.09577545 4.42400085 -0.11731689 5.37937927 -0.13951111 C6.35861862 -0.16535782 7.33785797 -0.19120453 8.34677124 -0.21783447 C17.3832521 -0.44340866 26.4213261 -0.57757196 35.45993137 -0.6832056 C41.53044806 -0.75547482 47.5970367 -0.85826442 53.66551208 -1.03404236 C59.53734429 -1.20334096 65.40557822 -1.29349466 71.2796917 -1.32905388 C73.51318608 -1.35600867 75.74653093 -1.41076316 77.97862434 -1.49432564 C94.99346254 -2.10276243 94.99346254 -2.10276243 99.72138023 1.7762394 C102.9319055 5.55027496 105.00408791 9.71635963 106.92897034 14.25254822 C108.30473869 17.25467578 110.12906583 19.76289123 112.06468201 22.43495178 C112.72274841 23.37145569 113.38081482 24.30795959 114.05882263 25.27284241 C115.03045349 26.64279358 115.03045349 26.64279358 116.02171326 28.04042053 C117.35078222 29.92034505 118.67761707 31.80185109 120.00218201 33.68495178 C120.6658075 34.58963196 121.32943298 35.49431213 122.01316833 36.42640686 C123.83421326 39.22792053 123.83421326 39.22792053 125.02049255 42.33216858 C126.56782552 45.9991195 127.63859572 47.80342 130.83421326 50.22792053 C138.72989406 52.24416002 147.19635956 51.58060217 155.27171326 51.41542053 C157.55230243 51.40845913 159.83291246 51.40645207 162.11351013 51.40956116 C167.68859762 51.4063794 173.26033245 51.34113542 178.83421326 51.22792053 C179.1396405 50.28102356 179.44506775 49.33412659 179.75975037 48.35853577 C182.47890829 40.43584499 188.74554987 34.46096123 195.83421326 30.22792053 C205.32202323 26.15552721 217.03323022 25.37117952 226.72093201 29.19667053 C236.44772546 33.9432019 244.48367143 40.70475563 248.33421326 51.04042053 C251.28687167 61.3550406 250.63839724 70.78676945 245.76780701 80.31385803 C240.07459221 90.12197065 232.69433857 95.39484584 221.91624451 98.84120178 C212.71521035 100.55021188 204.03534717 99.68234352 195.83421326 95.22792053 C195.04143982 94.80381897 194.24866638 94.37971741 193.43186951 93.94276428 C187.5422823 90.42469139 184.13849063 86.1864535 180.83421326 80.22792053 C180.45136169 79.53956116 180.06851013 78.85120178 179.67405701 78.14198303 C178.83421326 76.22792053 178.83421326 76.22792053 178.83421326 73.22792053 C178.09807297 73.24790604 177.36193268 73.26789154 176.60348511 73.28848267 C169.6453928 73.46927026 162.68765393 73.60606496 155.72781277 73.69423008 C152.14986959 73.74108589 148.57387599 73.80455782 144.99705505 73.90687561 C141.54093558 74.00511494 138.08668279 74.05856543 134.62927437 74.08181572 C132.67730141 74.10639247 130.72607407 74.17658735 128.77523804 74.24758911 C120.08652924 74.25250818 120.08652924 74.25250818 116.56971741 71.37521362 C114.75551486 69.07884865 113.2779873 66.77048758 111.83421326 64.22792053 C110.72336365 62.66473083 110.72336365 62.66473083 109.59007263 61.06996155 C108.95907654 60.13337708 108.32808044 59.1967926 107.67796326 58.23182678 C106.96511169 57.17801819 106.25226013 56.12420959 105.51780701 55.03846741 C104.79722107 53.96661194 104.07663513 52.89475647 103.33421326 51.79042053 C101.88696502 49.64543813 100.43905609 47.50090135 98.99046326 45.35682678 C98.29436951 44.32573792 97.59827576 43.29464905 96.88108826 42.23231506 C94.41504542 38.61266774 91.89793058 35.03128832 89.35960388 31.46205139 C87.83421326 29.22792053 87.83421326 29.22792053 86.76483154 26.62553406 C84.94844123 23.82496859 84.94844123 23.82496859 81.13504028 23.61560059 C79.56312228 23.59552305 77.99071133 23.60311259 76.41893005 23.63197327 C75.56006195 23.62791473 74.70119385 23.6238562 73.81629944 23.61967468 C71.95019204 23.61415147 70.08402319 23.6201828 68.21797752 23.63633537 C65.26261083 23.66169293 62.30864335 23.65697756 59.35321045 23.6444397 C53.07589207 23.62365675 46.79900336 23.64338487 40.52171326 23.66542053 C33.25794244 23.68652323 25.9946211 23.69107191 18.73085976 23.6649189 C15.82241992 23.66155932 12.91483841 23.68278017 10.00650024 23.70532227 C8.21689162 23.70281023 6.42728406 23.69924944 4.63768005 23.69447327 C3.83174911 23.70735886 3.02581818 23.72024445 2.19546509 23.73352051 C-3.05337495 23.68689411 -5.98003826 22.66568245 -10.16578674 19.22792053 C-12.93767832 16.00894967 -13.16578674 14.53436323 -13.16578674 10.22792053 C-12.44396263 5.9851988 -10.55981231 3.89465491 -7.16578674 1.22792053 C-4.47373676 0.33057054 -2.77634855 0.07486983 0 0 Z " fill="#3C9D48" transform="translate(891.1657867431641,429.77207946777344)"/>
<path d="M0 0 C0.33 0.66 0.66 1.32 1 2 C2.32 1.67 3.64 1.34 5 1 C4.85686422 3.62517106 4.71053705 6.25010426 4.5625 8.875 C4.50352539 9.96554687 4.50352539 9.96554687 4.44335938 11.078125 C4.22011399 14.99350564 3.91954441 18.88220429 3.49609375 22.78125 C2.88402718 28.72166122 2.68276579 34.6579664 2.5 40.625 C2.43800415 42.49841064 2.43800415 42.49841064 2.37475586 44.40966797 C2.1006428 53.01155037 1.92849726 61.61377122 1.78515625 70.21875 C1.74744224 72.36897868 1.70968159 74.51920654 1.671875 76.66943359 C1.59768616 80.91186781 1.53581687 85.15425569 1.48046875 89.39697266 C1.21211613 106.77162467 0.76016921 121.92202065 -12 135 C-14.36991838 137.02463001 -16.86560096 138.80422378 -19.4375 140.5625 C-20.16630371 141.06644287 -20.89510742 141.57038574 -21.64599609 142.08959961 C-53.55949813 163.86090155 -88.88892739 180.25829516 -126 191 C-126.76779785 191.2273584 -127.5355957 191.4547168 -128.32666016 191.68896484 C-153.94669761 199.26016015 -180.07646602 204.01405966 -206.59912109 207.04931641 C-207.55512207 207.16065918 -208.51112305 207.27200195 -209.49609375 207.38671875 C-210.34357178 207.48170654 -211.1910498 207.57669434 -212.06420898 207.67456055 C-214.00110375 207.80774056 -214.00110375 207.80774056 -215 209 C-221.11189877 210.20554602 -227.12311577 210.08008146 -233.33203125 209.9921875 C-235.53319865 209.97468832 -237.7343708 209.95777843 -239.93554688 209.94140625 C-243.39002631 209.91031371 -246.84426852 209.87457728 -250.29858398 209.82861328 C-253.64309754 209.78647842 -256.98732605 209.76290536 -260.33203125 209.7421875 C-261.8913311 209.71425613 -261.8913311 209.71425613 -263.48213196 209.6857605 C-264.91953987 209.68057907 -264.91953987 209.68057907 -266.38598633 209.67529297 C-267.23091141 209.66561493 -268.07583649 209.65593689 -268.94636536 209.64596558 C-269.62406479 209.76279694 -270.30176422 209.8796283 -271 210 C-271.66 210.99 -272.32 211.98 -273 213 C-258.00260746 213.73424734 -243.00298015 214.39079164 -228 215 C-228 215.66 -228 216.32 -228 217 C-231.77041256 217.19670554 -235.54133763 217.38078426 -239.3125 217.5625 C-240.38435547 217.61857422 -241.45621094 217.67464844 -242.56054688 217.73242188 C-243.58857422 217.78076172 -244.61660156 217.82910156 -245.67578125 217.87890625 C-246.62364502 217.9260376 -247.57150879 217.97316895 -248.5480957 218.02172852 C-251 218 -251 218 -254 217 C-255.4212326 216.8657321 -256.84704448 216.7764813 -258.2734375 216.71875 C-259.0984375 216.68136719 -259.9234375 216.64398437 -260.7734375 216.60546875 C-261.63195312 216.57066406 -262.49046875 216.53585937 -263.375 216.5 C-268.35298338 216.29635523 -273.12377066 216.09578188 -278 215 C-278.99 215 -279.98 215 -281 215 C-281 214.34 -281 213.68 -281 213 C-288.41610789 212.15503145 -295.83919172 211.43589291 -303.27148438 210.75 C-308.52907151 210.25770216 -313.76384068 209.68430554 -319 209 C-319.33 209.66 -319.66 210.32 -320 211 C-318.205625 211.185625 -318.205625 211.185625 -316.375 211.375 C-312.72403187 211.82325054 -309.45475101 212.70446837 -306 214 C-309.35519947 215.11888335 -311.50026827 214.86155507 -314.89453125 213.9609375 C-315.84247559 213.7127124 -316.79041992 213.4644873 -317.76708984 213.20874023 C-318.7720752 212.93360596 -319.77706055 212.65847168 -320.8125 212.375 C-321.84842285 212.09793213 -322.8843457 211.82086426 -323.95166016 211.53540039 C-330.85560679 209.66144133 -337.62836811 207.564251 -344.38671875 205.21875 C-348.45821804 203.84544429 -352.56008346 202.62940846 -356.6875 201.4375 C-363.51906701 199.46236863 -370.27602598 197.31905848 -377 195 C-373.11746179 193.60399688 -369.83997677 194.29699446 -365.82421875 194.92578125 C-364.3584045 195.14747024 -362.89249857 195.36855367 -361.42651367 195.58911133 C-360.65520111 195.70751373 -359.88388855 195.82591614 -359.08920288 195.94790649 C-341.42689376 198.62915539 -323.87092306 200.43583702 -306 201 C-305.28448975 201.02298157 -304.56897949 201.04596313 -303.83178711 201.06964111 C-256.05141532 202.51844334 -208.35069305 197.26836436 -161.97216797 185.72802734 C-159.04157793 185.01018444 -156.10376543 184.33798221 -153.16015625 183.67578125 C-117.99726493 175.598615 -83.0353948 161.33716559 -52 143 C-51.17999512 142.51708496 -50.35999023 142.03416992 -49.51513672 141.53662109 C-40.32784604 136.0673435 -31.53049319 130.1344056 -23 123.6875 C-22.23977539 123.12498535 -21.47955078 122.5624707 -20.69628906 121.98291016 C-13.01912811 116.01510334 -11.67019716 109.92844517 -10.37548828 100.57226562 C-9.73436997 94.47288774 -9.56877921 88.37849775 -9.4375 82.25 C-9.09022393 67.93040384 -9.09022393 67.93040384 -8.22973633 61.10644531 C-7.8921796 58.01139804 -7.81021676 54.91874666 -7.70947266 51.80834961 C-7.21503775 36.8338312 -5.65538413 21.85171042 -1.6484375 7.375 C-0.98148471 4.93218497 -0.47081749 2.48733768 0 0 Z " fill="#46A134" transform="translate(835,542)"/>
<path d="M0 0 C0.66 0 1.32 0 2 0 C3.35147359 2.70294718 3.13214337 4.80901724 3.14044189 7.83656311 C3.14615204 9.08001495 3.15186218 10.3234668 3.15774536 11.604599 C3.15899081 12.99038686 3.16011589 14.37617484 3.16113281 15.76196289 C3.16576024 17.21561815 3.17078479 18.66927219 3.17617798 20.1229248 C3.18931662 24.07989558 3.1957505 28.03684936 3.20018864 31.99383855 C3.20311874 34.46737029 3.20722356 36.94089739 3.21169281 39.4144268 C3.22537541 47.1570439 3.23503671 54.89965038 3.2388947 62.64227873 C3.24336887 71.57236549 3.26088365 80.50229869 3.2898953 89.43233877 C3.31154798 96.33777365 3.32160099 103.24316545 3.32293582 110.1486339 C3.32398185 114.27093844 3.32984579 118.39309879 3.34775543 122.51536751 C3.36429684 126.39858879 3.36636238 130.28155848 3.35761642 134.16480255 C3.35684912 135.58491886 3.3611481 137.00504902 3.37107468 138.42513084 C3.45920563 151.82666222 0.92457271 161.70601076 -8.1875 171.75 C-21.20758287 184.27596208 -39.03970978 193.46103593 -55.3125 200.875 C-56.44059082 201.3911084 -57.56868164 201.9072168 -58.73095703 202.43896484 C-74.38073263 209.52139307 -90.41130736 215.48483866 -106.5625 221.3125 C-107.69155762 221.72129395 -108.82061523 222.13008789 -109.98388672 222.55126953 C-122.58518016 227.03973024 -135.27921627 230.425869 -148.375 233.125 C-150.77890779 233.62634975 -153.18256115 234.1289213 -155.5859375 234.6328125 C-156.70379639 234.86709961 -157.82165527 235.10138672 -158.97338867 235.34277344 C-161.4397071 235.87833278 -163.88130658 236.45446492 -166.32421875 237.0859375 C-189.61484883 242.87765635 -214.13764686 243.41926016 -238 243 C-238 242.34 -238 241.68 -238 241 C-238.61705811 241.01047363 -239.23411621 241.02094727 -239.86987305 241.03173828 C-254.39184653 241.24377708 -268.57370143 240.68306817 -283 239 C-282.01 237.02 -282.01 237.02 -281 235 C-280.40166855 235.00222061 -279.8033371 235.00444122 -279.18687439 235.00672913 C-272.94107665 235.02890873 -266.69529016 235.04395942 -260.44946289 235.05493164 C-258.12068222 235.05995022 -255.79190469 235.0667665 -253.46313477 235.07543945 C-250.10952987 235.08761355 -246.75596676 235.09325318 -243.40234375 235.09765625 C-242.36665756 235.10281754 -241.33097137 235.10797882 -240.26390076 235.11329651 C-235.0726099 235.11369642 -230.10334063 234.99636026 -225 234 C-224.67 233.67 -224.34 233.34 -224 233 C-221.5619352 232.61379463 -219.13674197 232.28281612 -216.6875 231.984375 C-215.13316185 231.78625829 -213.57888362 231.58767101 -212.0246582 231.38867188 C-210.79448471 231.23289673 -210.79448471 231.23289673 -209.53945923 231.07397461 C-188.04143624 228.3313381 -166.94479933 224.76957051 -146.1328125 218.61621094 C-143.9501765 217.98560502 -141.7598318 217.39749625 -139.5625 216.8203125 C-128.43285329 213.88209545 -117.71534829 210.19778649 -107 206 C-106.10168457 205.6488916 -105.20336914 205.2977832 -104.27783203 204.93603516 C-92.83790103 200.43374029 -81.69730381 195.60163295 -70.79541016 189.91894531 C-69.07102389 189.03635218 -67.32288338 188.20064453 -65.57421875 187.3671875 C-51.19251119 180.49979773 -37.61095702 171.73477384 -25 162 C-24.1440625 161.35417969 -23.288125 160.70835937 -22.40625 160.04296875 C-13.94589208 152.85990513 -11.00163792 142.66690192 -10 132 C-9.82622859 128.42268431 -9.76901484 124.84657345 -9.71875 121.265625 C-9.70079376 120.24265823 -9.68283752 119.21969147 -9.66433716 118.16572571 C-9.6262171 115.98633638 -9.58981238 113.80691648 -9.55499268 111.62747192 C-9.46260384 105.95324898 -9.35132843 100.27938994 -9.2421875 94.60546875 C-9.22110931 93.49650742 -9.20003113 92.38754608 -9.17831421 91.24497986 C-8.76689165 69.65378674 -7.73565992 48.44263259 -5 27 C-6.98 27.495 -6.98 27.495 -9 28 C-8.48183613 17.80944392 -4.61655336 9.00362891 0 0 Z " fill="#157943" transform="translate(845,516)"/>
<path d="M0 0 C3.0625 0.25 3.0625 0.25 6.0625 2.25 C6.35546875 4.8515625 6.35546875 4.8515625 6.25 7.875 C6.20939453 9.37933594 6.20939453 9.37933594 6.16796875 10.9140625 C6.13316406 11.68492187 6.09835937 12.45578125 6.0625 13.25 C7.135 13.146875 8.2075 13.04375 9.3125 12.9375 C17.43970717 12.923013 25.02999699 17.088736 31.0625 22.25 C29.65082253 27.51170694 27.31399768 30.97171358 24.0625 35.25 C18.62800684 34.91034418 15.41110892 33.5268258 10.95703125 30.40625 C6.86743133 27.91032923 2.76765794 28.00662976 -1.9375 28.25 C-5.70871741 29.19280435 -8.64721756 29.99538811 -10.9375 33.25 C-12.10727494 35.59872531 -12.10727494 35.59872531 -11.9375 38.25 C-8.41692501 42.53966482 -5.4545722 44.09188585 -0.125 45.4375 C1.73318359 45.92476562 1.73318359 45.92476562 3.62890625 46.421875 C5.54974626 46.88514927 7.47272383 47.34039991 9.40234375 47.765625 C17.37742524 49.52699269 24.78553878 52.88660559 30.0625 59.25 C30.805 60.095625 31.5475 60.94125 32.3125 61.8125 C35.78805667 68.63948632 35.87804247 75.79268295 33.625 83.0625 C30.47742704 90.51784346 25.31974329 94.49433354 18 97.625 C14.01387249 99.06665972 10.27883078 99.88336254 6.0625 100.25 C6.11470703 101.40628906 6.11470703 101.40628906 6.16796875 102.5859375 C6.19503906 103.58882812 6.22210937 104.59171875 6.25 105.625 C6.30220703 107.12160156 6.30220703 107.12160156 6.35546875 108.6484375 C6.25878906 109.50695312 6.16210938 110.36546875 6.0625 111.25 C2.81616476 113.4142235 1.81948557 113.62569856 -1.9375 113.25 C-3.4225 112.26 -3.4225 112.26 -4.9375 111.25 C-5.23046875 108.6484375 -5.23046875 108.6484375 -5.125 105.625 C-5.09792969 104.62210938 -5.07085938 103.61921875 -5.04296875 102.5859375 C-5.00816406 101.81507813 -4.97335937 101.04421875 -4.9375 100.25 C-5.95457031 100.12044922 -5.95457031 100.12044922 -6.9921875 99.98828125 C-16.67960599 98.52577624 -26.44502123 95.01317797 -32.9375 87.25 C-33.87890625 85.3984375 -33.87890625 85.3984375 -33.9375 83.25 C-32.2421875 80.63671875 -32.2421875 80.63671875 -29.8125 77.9375 C-29.02617188 77.03386719 -28.23984375 76.13023437 -27.4296875 75.19921875 C-24.9375 73.25 -24.9375 73.25 -22.34375 73.27734375 C-19.85737525 74.28238809 -18.4651272 75.25949723 -16.5625 77.125 C-9.77432145 83.14607095 -4.16678161 83.79446154 4.796875 83.61328125 C9.10209374 83.13435141 10.98663093 82.23798709 14.0625 79.25 C15.49985246 76.37529507 15.44422649 74.43105412 15.0625 71.25 C11.63674728 67.94302338 8.48047199 66.47672178 3.9375 65.1875 C2.22240234 64.68863281 2.22240234 64.68863281 0.47265625 64.1796875 C-1.63956195 63.60384795 -3.75613418 63.04343892 -5.87890625 62.5078125 C-15.10662831 60.17134802 -23.47858768 57.43836848 -28.9375 49.25 C-31.95847089 42.96166698 -32.06397924 35.59193579 -30.3203125 28.87109375 C-27.4379218 22.35382982 -21.73554843 17.37816974 -15.375 14.3125 C-11.71019251 13.17974132 -8.75081081 13.01653199 -4.9375 13.25 C-4.96070313 12.47914063 -4.98390625 11.70828125 -5.0078125 10.9140625 C-5.02585937 9.91117188 -5.04390625 8.90828125 -5.0625 7.875 C-5.08570313 6.87726563 -5.10890625 5.87953125 -5.1328125 4.8515625 C-4.84235366 0.9826508 -3.80408263 0.32375171 0 0 Z " fill="#04438A" transform="translate(555.9375,502.75)"/>
<path d="M0 0 C0.82562187 -0.00623996 1.65124374 -0.01247993 2.50188446 -0.01890898 C5.26652135 -0.03485515 8.03027855 -0.02222854 10.79492188 -0.00964355 C12.7776745 -0.01506395 14.7604231 -0.02218615 16.74316406 -0.03088379 C22.12742982 -0.04912978 27.51138924 -0.04204426 32.8956604 -0.02936745 C38.52810497 -0.01924644 44.16052316 -0.02863063 49.79296875 -0.03491211 C59.25200107 -0.04219112 68.71090851 -0.03259409 78.16992188 -0.0135498 C89.1087215 0.00821936 100.04722292 0.00116817 110.98601532 -0.02085543 C120.37467757 -0.03900213 129.76325001 -0.0415713 139.15192413 -0.03110075 C144.76075631 -0.02486183 150.36944829 -0.02404121 155.97827148 -0.0372467 C161.25115939 -0.0487939 166.52366249 -0.04079995 171.79650879 -0.01766968 C173.7327002 -0.01237657 175.66892395 -0.01390662 177.60510254 -0.02272034 C180.24628811 -0.03363565 182.88623718 -0.0199612 185.52734375 0 C186.2953405 -0.00892289 187.06333725 -0.01784577 187.85460663 -0.02703905 C191.54254184 0.0271029 193.60155999 0.40397276 196.73693848 2.41468048 C198.76367188 4.50793457 198.76367188 4.50793457 199.42773438 6.50793457 C199.41484375 7.16793457 199.40195312 7.82793457 199.38867188 8.50793457 C199.4015625 9.16793457 199.41445313 9.82793457 199.42773438 10.50793457 C198.36868705 13.69753592 196.56365121 14.71400256 193.76367188 16.50793457 C190.87354269 16.8933711 188.36835803 17.04919796 185.48265076 17.01586914 C184.23703427 17.02522908 184.23703427 17.02522908 182.96625382 17.03477812 C180.18546513 17.05072491 177.40555095 17.03809746 174.62475586 17.0255127 C172.63052865 17.03093302 170.63630545 17.03805518 168.64208984 17.04675293 C163.22690105 17.06499856 157.81201686 17.05791385 152.39682269 17.04523659 C146.73321375 17.03511681 141.06963107 17.04449929 135.40602112 17.05078125 C125.89571443 17.05806003 116.38553197 17.04846323 106.87524414 17.02941895 C95.87394113 17.00764358 84.87293456 17.01470557 73.87163872 17.03672457 C64.43118799 17.05486449 54.9908266 17.05744395 45.55036408 17.04696989 C39.90970598 17.04072804 34.26918732 17.0399185 28.62853813 17.05311584 C23.32692682 17.06465341 18.02569856 17.0566868 12.72412872 17.03353882 C10.77622934 17.02824081 8.82829783 17.02978408 6.88041115 17.03858948 C4.22573908 17.04948536 1.57230224 17.03585411 -1.08229065 17.01586914 C-1.85709119 17.02479203 -2.63189173 17.03371491 -3.43017107 17.04290819 C-6.96078856 16.99118443 -8.87434125 16.78689725 -11.71055508 14.60118866 C-13.35451433 12.34579135 -13.80421987 11.26850991 -13.79882812 8.50793457 C-13.82074219 7.84793457 -13.84265625 7.18793457 -13.86523438 6.50793457 C-11.86107456 0.1344574 -5.69511738 -0.0661681 0 0 Z " fill="#01538E" transform="translate(533.236328125,382.4920654296875)"/>
<path d="M0 0 C0.72353306 -0.00865438 1.44706613 -0.01730876 2.19252443 -0.02622539 C4.61215932 -0.04778281 7.02948707 -0.02654005 9.44909668 -0.00532532 C11.18555295 -0.01181977 12.92200125 -0.02088168 14.65843201 -0.03231812 C19.37140982 -0.05540079 24.08357793 -0.0406794 28.79652977 -0.01784873 C33.72829724 0.00106308 38.6600102 -0.0100904 43.59179688 -0.01675415 C51.87395085 -0.02309522 60.15578032 -0.00482238 68.43786621 0.02787781 C78.01346876 0.06537252 87.58845654 0.0635938 97.16409159 0.04083663 C106.37509166 0.01988916 115.58586448 0.02716069 124.79685974 0.04715538 C128.71706124 0.05514263 132.63707058 0.0531484 136.55726624 0.04313087 C141.17366806 0.0325817 145.78935329 0.04670064 150.40564156 0.07987404 C152.09993606 0.0880838 153.79429619 0.08779421 155.48858452 0.07839584 C157.80170472 0.06697384 160.1125947 0.08633551 162.42553711 0.11352539 C164.36677082 0.11830131 164.36677082 0.11830131 166.34722137 0.12317371 C170.60034228 0.92184569 172.08570401 2.37787235 174.71276855 5.75517273 C175.33776855 9.25517273 175.33776855 9.25517273 174.71276855 12.75517273 C172.09022615 16.12388208 170.6075564 17.58785394 166.36283875 18.38158512 C165.07605728 18.38217143 163.78927582 18.38275774 162.46350098 18.38336182 C161.74405147 18.3904562 161.02460196 18.39755059 160.28335094 18.40485996 C157.87776608 18.42243218 155.47379874 18.40434102 153.0682373 18.38627625 C151.34163681 18.3914154 149.61504155 18.39869666 147.88845825 18.40795898 C143.20242024 18.42648174 138.51695082 18.41352897 133.83093643 18.39386868 C128.92720116 18.37748808 124.02350208 18.38629426 119.11975098 18.39138794 C110.88471388 18.39590955 102.64990388 18.38003485 94.41491699 18.35209656 C84.89391327 18.32004436 75.37331914 18.32006018 65.85228634 18.33731133 C56.6936371 18.35317468 47.53513803 18.34644408 38.37649536 18.32937431 C34.4786479 18.32250142 30.58092073 18.32353872 26.68307495 18.33091927 C22.09303278 18.33857999 17.50345678 18.32646303 12.91349411 18.29907036 C11.22886921 18.29218319 9.5442008 18.29209213 7.85957718 18.29928589 C5.55987649 18.30797465 3.26161637 18.29203645 0.96203613 18.26983643 C-0.32474533 18.2670295 -1.61152679 18.26422258 -2.93730164 18.2613306 C-6.88143758 17.66539111 -8.52845994 16.5941284 -11.28723145 13.75517273 C-12.41223145 10.38017273 -12.41223145 10.38017273 -12.28723145 6.75517273 C-8.73934217 1.25904669 -6.75028227 0.00502473 0 0 Z " fill="#0A789C" transform="translate(634.2872314453125,327.2448272705078)"/>
<path d="M0 0 C1.8213018 -0.01073296 1.8213018 -0.01073296 3.67939758 -0.02168274 C5.03738378 -0.02452331 6.39537025 -0.027235 7.75335693 -0.02983093 C9.17394681 -0.0360928 10.59453505 -0.04273935 12.01512146 -0.04974365 C15.88510353 -0.06718128 19.75507322 -0.07771329 23.62508488 -0.08594918 C26.04179412 -0.09109434 28.45849948 -0.09717035 30.87520599 -0.10346031 C38.43307342 -0.12252159 45.99093102 -0.13674973 53.54881787 -0.14507228 C62.27921053 -0.15484391 71.00934959 -0.18115739 79.73965287 -0.22157317 C86.48279737 -0.2517203 93.22586914 -0.26653988 99.96907973 -0.26985329 C103.99854627 -0.27220577 108.02774217 -0.28119109 112.05713654 -0.30631447 C115.84928181 -0.32957537 119.64097795 -0.33383669 123.43317604 -0.32355309 C124.82434138 -0.32305709 126.21552867 -0.32939636 127.60662651 -0.34310913 C129.5074443 -0.36079636 131.40845661 -0.35134688 133.30932617 -0.34057617 C134.37269825 -0.34296453 135.43607033 -0.34535288 136.5316658 -0.34781361 C140.16471909 0.27725684 141.84325837 1.53619323 144.40863037 4.14717102 C144.94914732 7.93078967 144.95625605 10.15622932 143.09613037 13.52217102 C139.9889557 16.51426515 136.78605618 16.27747942 132.69064331 16.29434204 C131.49893524 16.30149734 130.30722717 16.30865265 129.07940674 16.31602478 C127.77024292 16.31871368 126.4610791 16.32140259 125.11224365 16.32417297 C123.72091502 16.33043876 122.32958807 16.33708566 120.93826294 16.34408569 C116.36850141 16.36511068 111.79873959 16.37548498 107.22894287 16.38545227 C105.65557716 16.38950008 104.08221163 16.39361701 102.50884628 16.39780235 C95.11864168 16.41684871 87.72844705 16.43108225 80.33822262 16.43941432 C71.80650933 16.44919229 63.2750551 16.47552853 54.74343312 16.51591522 C48.14886698 16.54606184 41.55437519 16.56088171 34.95974147 16.56419533 C31.02084601 16.56654704 27.08222749 16.57552313 23.14340591 16.60065651 C19.43823327 16.62391781 15.73352032 16.62817863 12.02829361 16.61789513 C10.0217928 16.61716288 8.01531543 16.63626668 6.00891113 16.65596008 C4.81156342 16.64901627 3.6142157 16.64207245 2.38058472 16.63491821 C1.34193331 16.63730657 0.3032819 16.63969492 -0.7668438 16.64215565 C-4.34980019 16.0142597 -6.02007825 14.67601186 -8.59136963 12.14717102 C-9.85809174 8.42617483 -9.95251893 6.88588551 -8.21636963 3.33467102 C-5.50704163 -0.31250128 -4.59022845 0.01847342 0 0 Z " fill="#014B8F" transform="translate(528.5913696289063,418.8528289794922)"/>
<path d="M0 0 C0.33 0 0.66 0 1 0 C1 21.45 1 42.9 1 65 C-23.75 65 -48.5 65 -74 65 C-70.77863506 63.38931753 -68.03171489 62.34384793 -64.625 61.3125 C-52.28951834 57.20067278 -43.0025779 52.41339635 -35 42 C-32.20905918 38.39550558 -29.25230827 35.19362 -26 32 C-16.35650909 22.07658192 -7.68243824 11.52365735 0 0 Z " fill="#F8FAFB" transform="translate(570,278)"/>
<path d="M0 0 C0.67501053 -0.0065712 1.35002106 -0.0131424 2.04548645 -0.01991272 C4.28317371 -0.03965067 6.52079382 -0.05130962 8.75854492 -0.0612793 C9.52274939 -0.06535482 10.28695385 -0.06943035 11.07431602 -0.07362938 C15.11952825 -0.09449273 19.16470653 -0.10879299 23.20996094 -0.11816406 C27.38650817 -0.12922629 31.56252229 -0.16362266 35.73888111 -0.20333576 C38.95168543 -0.22949308 42.16436259 -0.2378551 45.37726402 -0.24144554 C46.91663906 -0.24631422 48.45600831 -0.25793635 49.99527931 -0.27648354 C52.15222914 -0.30085673 54.30779811 -0.29991424 56.46484375 -0.29296875 C58.30445427 -0.30176811 58.30445427 -0.30176811 60.18122864 -0.31074524 C64.06567545 0.2730642 65.70004257 1.3913381 68.42651367 4.17700195 C69.55151367 7.55200195 69.55151367 7.55200195 69.42651367 11.17700195 C65.71306673 16.88190718 65.71306673 16.88190718 61.16345215 17.92544556 C59.92832886 17.92418671 58.69320557 17.92292786 57.4206543 17.92163086 C56.39285103 17.93258286 56.39285103 17.93258286 55.34428406 17.9437561 C53.08942084 17.95990971 50.83745979 17.93280908 48.58276367 17.90356445 C47.01005048 17.90252648 45.43733466 17.90356488 43.86462402 17.90658569 C40.57252127 17.90640651 37.2814008 17.88560679 33.98950195 17.84936523 C29.77586933 17.80398843 25.56367088 17.80290428 21.34986115 17.81640053 C18.10348833 17.82309299 14.8574408 17.80979637 11.61112976 17.79014206 C10.05785323 17.78245976 8.50454044 17.78013264 6.95124817 17.78331375 C4.7775924 17.78405808 2.60575472 17.75874092 0.43237305 17.72631836 C-1.42031189 17.71249619 -1.42031189 17.71249619 -3.3104248 17.69839478 C-7.18908801 17.07863718 -8.84943082 15.96756928 -11.57348633 13.17700195 C-12.63598633 9.73950195 -12.63598633 9.73950195 -12.57348633 6.17700195 C-8.97066582 0.46218322 -6.49817895 0.05226174 0 0 Z " fill="#0A468E" transform="translate(531.573486328125,453.822998046875)"/>
<path d="M0 0 C5.16401741 4.66021083 7.16406458 8.85939298 7.9375 15.5625 C7.32689658 21.66853422 4.35793109 25.68408575 -0.125 29.75 C-4.82879016 32.92823659 -8.86474244 32.77202274 -14.4375 32.3125 C-19.51006246 31.09928826 -22.57205406 28.66373273 -25.4375 24.3125 C-28.26667623 19.54273357 -28.0651077 14.70992619 -27.4375 9.3125 C-25.08215564 4.42063094 -21.7201542 1.50171058 -17.4375 -1.6875 C-11.65035139 -3.61654954 -5.40766235 -2.65467061 0 0 Z " fill="#FBFCF9" transform="translate(1074.4375,277.6875)"/>
<path d="M0 0 C4.65118059 5.27971851 5.30126697 8.32294991 5.2109375 15.2421875 C4.81806102 20.37868369 2.83754119 23.44325506 -0.9375 26.75 C-6.22550624 30.63506581 -9.05262787 31.37454643 -15.53515625 30.52734375 C-20.7739396 29.40652639 -23.81812954 26.58990496 -26.875 22.375 C-29.57985015 17.65029423 -30.04733304 13.32112753 -29 8 C-26.44625557 1.70220652 -22.38028775 -2.10187531 -16.125 -4.8125 C-9.55555398 -5.392157 -5.10059734 -4.17321601 0 0 Z " fill="#FBFCFA" transform="translate(1096,380)"/>
<path d="M0 0 C5.23102812 1.48919359 8.52319766 5.08868446 11.109375 9.7265625 C12.74482998 13.90127653 12.97822639 17.62920123 12 22 C9.31565084 27.33205191 5.34462944 31.32768528 0 34 C-4.3478517 35.28034897 -7.32657841 35.20545065 -11.6875 33.875 C-17.27050296 30.71480965 -20.71136272 27.02272968 -23 21 C-23.59616976 15.53511055 -22.5917269 11.82597422 -20 7 C-13.76699328 -0.01213256 -9.11750691 -0.9223937 0 0 Z " fill="#F8FBFC" transform="translate(1006,549)"/>
<path d="M0 0 C4.02052654 2.61474803 6.52506187 5.98013774 8.25 10.4375 C9.1301497 15.44045617 8.86946503 19.17474436 6.625 23.75 C-0.79175348 32.1426421 -0.79175348 32.1426421 -6.140625 32.67578125 C-13.78751218 32.87426603 -17.37197726 31.62785481 -23 26.3125 C-26.21302726 21.03395522 -27.12096488 15.70038575 -26.125 9.625 C-23.6507192 3.88916724 -20.60206944 0.68096484 -14.9609375 -1.8984375 C-9.79126431 -3.4511662 -4.77597923 -2.3102893 0 0 Z " fill="#FAFCFA" transform="translate(1113.75,477.5625)"/>
<path d="M0 0 C0.66 0.99 1.32 1.98 2 3 C-6.05379905 12.60434354 -14.13061375 22.13061375 -23 31 C-28.67419645 37.04634424 -28.67419645 37.04634424 -33.80078125 43.54296875 C-36.68408493 46.76427961 -39.77811536 48.42141465 -43.625 50.3125 C-44.33269531 50.66570312 -45.04039062 51.01890625 -45.76953125 51.3828125 C-51.23282945 53.96021547 -55.9445989 55.04805019 -62 54 C-54.23348799 44.2363849 -44.57080405 36.1311264 -34.87890625 28.34375 C-31.53397612 25.62060471 -28.26536648 22.81757763 -25 20 C-19.77167316 15.49156198 -14.48044583 11.08036009 -9.109375 6.7421875 C-6.95895522 5.02222481 -6.95895522 5.02222481 -5 3 C-3.68 3 -2.36 3 -1 3 C-0.67 2.01 -0.34 1.02 0 0 Z " fill="#267E83" transform="translate(562,285)"/>
<path d="M0 0 C3.45860899 2.01752191 5.91304247 4.08695289 7 8 C6.92002707 13.03829462 6.80642825 15.02815058 3.5625 18.9375 C0.13638804 21.69510231 -2.32967133 22.64655236 -6.82421875 22.60546875 C-10.70492682 21.52555896 -12.50370003 18.66540663 -14.69921875 15.4453125 C-16.5706765 11.92719674 -16.95362854 9.88787019 -16 6 C-12.32862646 -0.4071847 -6.93983638 -1.36711301 0 0 Z " fill="#198C64" transform="translate(955,478)"/>
<path d="M0 0 C16.82986927 0.74191999 16.82986927 0.74191999 24.40307617 2.49975586 C34.15377241 4.37802761 44.41486729 4.23239853 54.3125 4.5625 C56.15618164 4.62727539 56.15618164 4.62727539 58.03710938 4.69335938 C61.02466486 4.79798194 64.01228143 4.90016327 67 5 C66.34 6.32 65.68 7.64 65 9 C79.99739254 9.73424734 94.99701985 10.39079164 110 11 C110 11.66 110 12.32 110 13 C106.22958744 13.19670554 102.45866237 13.38078426 98.6875 13.5625 C97.0797168 13.64661133 97.0797168 13.64661133 95.43945312 13.73242188 C93.89741211 13.80493164 93.89741211 13.80493164 92.32421875 13.87890625 C91.37635498 13.9260376 90.42849121 13.97316895 89.4519043 14.02172852 C87 14 87 14 84 13 C82.5787674 12.8657321 81.15295552 12.7764813 79.7265625 12.71875 C78.9015625 12.68136719 78.0765625 12.64398437 77.2265625 12.60546875 C76.36804688 12.57066406 75.50953125 12.53585937 74.625 12.5 C69.64701662 12.29635523 64.87622934 12.09578188 60 11 C59.01 11 58.02 11 57 11 C57 10.34 57 9.68 57 9 C49.58389211 8.15503145 42.16080828 7.43589291 34.72851562 6.75 C29.47092849 6.25770216 24.23615932 5.68430554 19 5 C18.67 5.66 18.34 6.32 18 7 C19.19625 7.12375 20.3925 7.2475 21.625 7.375 C25.27596813 7.82325054 28.54524899 8.70446837 32 10 C28.51736009 11.1919386 26.24303726 10.792575 22.71875 9.85546875 C21.71199219 9.59056641 20.70523438 9.32566406 19.66796875 9.05273438 C18.62253906 8.76720703 17.57710937 8.48167969 16.5 8.1875 C15.45457031 7.91357422 14.40914063 7.63964844 13.33203125 7.35742188 C3.9358311 4.84896127 3.9358311 4.84896127 1 3 C0.67 2.01 0.34 1.02 0 0 Z " fill="#399648" transform="translate(497,746)"/>
<path d="M0 0 C0.8765625 0.10957031 1.753125 0.21914063 2.65625 0.33203125 C4.6566511 0.58208139 6.65709127 0.8318365 8.65795898 1.078125 C12.8817946 1.60023739 17.10047697 2.14777934 21.31640625 2.73046875 C37.84218362 4.96762015 54.35805665 6.08185792 71 7 C70.67 7.66 70.34 8.32 70 9 C67.4375 9.625 67.4375 9.625 65 10 C65 10.33 65 10.66 65 11 C78.86 12.485 78.86 12.485 93 14 C93 14.33 93 14.66 93 15 C79.64736345 15.18017051 66.85572273 14.30894846 53.71020508 12.01635742 C49.06231539 11.22700114 44.71504674 10.85540523 40 11 C40 11.66 40 12.32 40 13 C26.35397745 10.31953129 13.15456025 5.44155411 0 1 C0 0.67 0 0.34 0 0 Z " fill="#90CA2E" transform="translate(458,736)"/>
<path d="M0 0 C1.86475479 -0.00262848 1.86475479 -0.00262848 3.7671814 -0.00531006 C7.16197973 -0.00894683 10.55671678 -0.00810841 13.95151162 -0.00493097 C17.5169255 -0.00238819 21.08233687 -0.0047504 24.64775085 -0.00631714 C30.63707953 -0.00813395 36.62639586 -0.00574607 42.61572266 -0.00097656 C49.51903632 0.00445766 56.42232041 0.00270754 63.32563335 -0.00280297 C69.27068245 -0.00735693 75.2157227 -0.00797328 81.16077298 -0.0053643 C84.70338658 -0.0038131 88.24598633 -0.00357566 91.78859901 -0.00690079 C95.74449414 -0.01035467 99.70035681 -0.00555258 103.65625 0 C105.39519279 -0.00303635 105.39519279 -0.00303635 107.16926575 -0.00613403 C121.73535094 0.031581 121.73535094 0.031581 126.5222168 1.12939453 C128.77612305 3.52783203 128.77612305 3.52783203 130.0847168 6.50439453 C130.53975586 7.48150391 130.99479492 8.45861328 131.46362305 9.46533203 C132.20544277 11.33219939 132.88696171 13.22362927 133.5222168 15.12939453 C134.5122168 15.45939453 135.5022168 15.78939453 136.5222168 16.12939453 C136.8522168 17.11939453 137.1822168 18.10939453 137.5222168 19.12939453 C133.97256203 17.69262951 132.45133738 16.01637555 130.3972168 12.81689453 C129.89963867 12.05763672 129.40206055 11.29837891 128.8894043 10.51611328 C127.5222168 8.12939453 127.5222168 8.12939453 125.5222168 3.12939453 C53.7472168 2.63439453 53.7472168 2.63439453 -19.4777832 2.12939453 C-19.4777832 1.79939453 -19.4777832 1.46939453 -19.4777832 1.12939453 C-12.98278028 -0.04516893 -6.58694075 -0.01144144 0 0 Z " fill="#32914D" transform="translate(923.477783203125,401.87060546875)"/>
<path d="M0 0 C0.74185547 -0.00773437 1.48371094 -0.01546875 2.24804688 -0.0234375 C6.42803418 -0.00854885 9.61959028 0.34482525 13.4375 2.25 C10.05167222 3.37860926 8.84444237 2.98758546 5.4375 2.25 C-0.56524559 1.8742823 -5.95559408 1.84704032 -11.5625 4.25 C-12.408125 4.559375 -13.25375 4.86875 -14.125 5.1875 C-24.18805613 9.57396036 -28.10817521 15.22776923 -32.5625 25.25 C-91.9625 25.25 -151.3625 25.25 -212.5625 25.25 C-212.5625 24.92 -212.5625 24.59 -212.5625 24.25 C-153.8225 23.92 -95.0825 23.59 -34.5625 23.25 C-33.2425 20.61 -31.9225 17.97 -30.5625 15.25 C-23.7687301 4.68627686 -12.16577954 -0.12750162 0 0 Z " fill="#ACDEB3" transform="translate(1083.5625,356.75)"/>
<path d="M0 0 C0 0.66 0 1.32 0 2 C-1.18335938 1.95359375 -2.36671875 1.9071875 -3.5859375 1.859375 C-17.07038868 1.48115955 -25.16407003 2.99409477 -35.578125 12.09765625 C-37.8985148 14.87838144 -39.44730291 17.49978521 -41.15136719 20.68139648 C-41.95389923 22.17351906 -41.95389923 22.17351906 -42.77264404 23.69578552 C-43.17767151 24.4561763 -43.58269897 25.21656708 -44 26 C-44.8054425 26.00808685 -45.61088501 26.01617371 -46.44073486 26.02450562 C-54.03316237 26.1024628 -61.625398 26.18975676 -69.21759415 26.28752708 C-73.12077534 26.33746219 -77.02392984 26.38379237 -80.92724609 26.421875 C-84.69452336 26.45876317 -88.46157576 26.50513252 -92.22866058 26.55806351 C-93.66551517 26.57658873 -95.10241793 26.59170363 -96.53934479 26.60334396 C-98.55269323 26.62023765 -100.56591701 26.65040683 -102.57910156 26.68115234 C-103.72493713 26.69447601 -104.87077271 26.70779968 -106.05133057 26.7215271 C-108.90275059 26.99081575 -110.58265456 27.51805733 -113 29 C-112.34 27.35 -111.68 25.7 -111 24 C-89.22 24 -67.44 24 -45 24 C-44.34 22.02 -43.68 20.04 -43 18 C-37.70750297 9.11401778 -29.34184547 2.31078601 -19.359375 -0.57421875 C-12.94910914 -1.73103825 -6.34960372 -1.37288729 0 0 Z " fill="#8FC94E" transform="translate(1074,257)"/>
<path d="M0 0 C0.3403125 1.3303125 0.3403125 1.3303125 0.6875 2.6875 C2.20271827 6.51162229 4.0410414 8.17866738 7 11 C8.75591051 13.28077507 10.37023763 15.62520341 12 18 C11.01 17.67 10.02 17.34 9 17 C-0.42977431 16.33915328 -8.92393603 17.46714494 -18 20 C-3.4787234 0 -3.4787234 0 0 0 Z " fill="#CED2D5" transform="translate(544,311)"/>
<path d="M0 0 C5.62332334 2.49925482 9.26234779 6.21113311 13 11 C15.55195846 13.68627207 18.1226507 16.0996537 21 18.4375 C24 21 24 21 26.4375 23.9375 C28.39751821 26.27996079 30.0599458 27.97242762 32.375 29.875 C35.748716 32.66325552 38.47979041 35.78558241 41.3046875 39.1171875 C42.84588225 40.82883697 44.39201606 42.25291735 46.1875 43.6875 C48.92663696 45.93967928 50.83687943 48.20887668 53 51 C58.61423811 57.06944661 64.45723272 62.2112079 73 63 C78.72151763 62.84514411 84.37908608 62.06341615 90 61 C86.93994289 64.51906568 84.46747043 64.87062603 79.8984375 65.2734375 C78.73570312 65.30695313 77.57296875 65.34046875 76.375 65.375 C75.22773437 65.42398438 74.08046875 65.47296875 72.8984375 65.5234375 C60.78824941 63.89742026 53.24182541 54.91833871 45.1171875 46.640625 C43.80971182 45.32635023 42.5011917 44.01311375 41.19168091 42.7008667 C38.46619195 39.96475619 35.74888075 37.22088332 33.03808594 34.47021484 C29.55576873 30.93667956 26.06039197 27.41644041 22.55981255 23.90100479 C19.22083108 20.54728504 15.88712276 17.18834802 12.5546875 13.828125 C11.91653988 13.1850666 11.27839226 12.54200821 10.62090683 11.8794632 C8.83015965 10.07253038 7.0430818 8.26205778 5.25732422 6.45019531 C4.72134109 5.90995224 4.18535797 5.36970917 3.63313293 4.81309509 C0 1.11513291 0 1.11513291 0 0 Z " fill="#429B41" transform="translate(625,523)"/>
<path d="M0 0 C0.33 0 0.66 0 1 0 C1 25.74 1 51.48 1 78 C22.45 78 43.9 78 66 78 C62.54339526 80.30440316 61.26917058 80.2442626 57.19921875 80.22705078 C56.0078833 80.22689972 54.81654785 80.22674866 53.58911133 80.22659302 C52.30157959 80.21627045 51.01404785 80.20594788 49.6875 80.1953125 C48.35376192 80.19158035 47.0200211 80.18873433 45.6862793 80.18673706 C42.17582623 80.1791047 38.66553894 80.15946722 35.15515137 80.1373291 C31.58522774 80.11690643 28.01527769 80.10773124 24.4453125 80.09765625 C18.16962016 80.07851154 11.89402971 80.04950637 5.6184082 80.01345825 C3.74562483 80.00383241 1.87280811 80 0 80 C0 53.6 0 27.2 0 0 Z " fill="#47A77D" transform="translate(863,252)"/>
<path d="M0 0 C12.36042666 1.48604847 24.68074566 3.20673631 37 5 C37.495 6.485 37.495 6.485 38 8 C39.98 8.33 41.96 8.66 44 9 C42.02 9.99 42.02 9.99 40 11 C40 11.66 40 12.32 40 13 C26.35397745 10.31953129 13.15456025 5.44155411 0 1 C0 0.67 0 0.34 0 0 Z " fill="#85C12C" transform="translate(458,736)"/>
<path d="M0 0 C-3 1 -3 1 -6.1875 0.0625 C-14.4231834 -2.23269045 -20.56200365 -0.99492385 -28 3 C-30.96427455 5.05450736 -33.44623035 7.45902052 -36 10 C-36.53737793 10.53044922 -37.07475586 11.06089844 -37.62841797 11.60742188 C-41.24881485 15.18375117 -44.84249163 18.7855122 -48.42016602 22.40454102 C-49.82976483 23.82808116 -51.24643693 25.24460931 -52.6640625 26.66015625 C-54.17651979 28.17514274 -55.67859109 29.70059945 -57.16796875 31.23828125 C-58.16763672 32.26501953 -58.16763672 32.26501953 -59.1875 33.3125 C-59.86167969 34.00988281 -60.53585937 34.70726562 -61.23046875 35.42578125 C-63 37 -63 37 -65 37 C-65 37.66 -65 38.32 -65 39 C-65.99 38.67 -66.98 38.34 -68 38 C-56.76953125 26.76953125 -56.76953125 26.76953125 -54.79394531 24.7956543 C-53.32853035 23.32884332 -51.86855026 21.85660434 -50.41015625 20.3828125 C-45.89253891 15.91644852 -41.18855263 11.64934273 -36.49609375 7.36816406 C-35.27266203 6.24934693 -34.05706035 5.12197286 -32.84375 3.9921875 C-23.73372327 -4.24824576 -10.95889497 -6.2622257 0 0 Z " fill="#9ED330" transform="translate(844,407)"/>
<path d="M0 0 C5.07613812 2.89925581 9.29063925 6.82572085 11.78125 12.16015625 C13.17357978 18.94150345 11.94047676 24.47014841 8.28125 30.28125 C5.37847945 33.91727249 2.20346173 35.68608567 -2.21875 37.16015625 C-8.00361795 37.73313365 -12.15447769 37.27663152 -17.21875 34.16015625 C-16.22875 33.66515625 -16.22875 33.66515625 -15.21875 33.16015625 C-14.31125 33.46953125 -13.40375 33.77890625 -12.46875 34.09765625 C-8.28342802 35.46593459 -5.26869133 36.14022344 -1.16796875 34.1796875 C3.74756747 31.2591221 6.93275773 28.70563307 8.78125 23.16015625 C9.28304253 17.92012602 9.430275 13.53309374 7.15625 8.72265625 C2.96492975 4.2004423 -0.82753449 1.57476233 -7.12890625 1.0546875 C-12.4082552 1.32112193 -16.67699029 3.28056716 -20.21875 7.16015625 C-20.87875 6.83015625 -21.53875 6.50015625 -22.21875 6.16015625 C-15.42791958 0.29534816 -9.19494968 -3.48048271 0 0 Z " fill="#81BE3B" transform="translate(1091.21875,374.83984375)"/>
<path d="M0 0 C5.51350585 -0.02490465 11.02697822 -0.04295608 16.54052734 -0.05493164 C18.41227795 -0.05992942 20.28402471 -0.06672988 22.15576172 -0.07543945 C24.86166335 -0.08770621 27.56751292 -0.093274 30.2734375 -0.09765625 C31.09677582 -0.10281754 31.92011414 -0.10797882 32.7684021 -0.11329651 C44.87908454 -0.11443982 44.87908454 -0.11443982 50 1 C52.25390625 3.3984375 52.25390625 3.3984375 53.5625 6.375 C54.24505859 7.84066406 54.24505859 7.84066406 54.94140625 9.3359375 C55.68322598 11.20280486 56.36474491 13.09423474 57 15 C57.99 15.33 58.98 15.66 60 16 C60.495 17.485 60.495 17.485 61 19 C57.45034523 17.56323497 55.92912058 15.88698102 53.875 12.6875 C53.37742187 11.92824219 52.87984375 11.16898437 52.3671875 10.38671875 C51 8 51 8 49 3 C24.25 2.505 24.25 2.505 -1 2 C-0.67 1.34 -0.34 0.68 0 0 Z " fill="#4FA23D" transform="translate(1000,402)"/>
<path d="M0 0 C0.66 0.33 1.32 0.66 2 1 C0.92492371 2.29854721 -0.16043736 3.58858361 -1.25 4.875 C-1.85328125 5.59429687 -2.4565625 6.31359375 -3.078125 7.0546875 C-5.00779591 9.00789098 -6.561303 9.81875614 -9 11 C-10.9499629 12.70995544 -10.9499629 12.70995544 -12.75 14.625 C-13.36359375 15.25664062 -13.9771875 15.88828125 -14.609375 16.5390625 C-15.06828125 17.02117187 -15.5271875 17.50328125 -16 18 C-13.69 18 -11.38 18 -9 18 C-11 20 -11 20 -14.5625 21.5 C-18.06202674 22.58995587 -18.06202674 22.58995587 -19 25 C-20.65 24.67 -22.3 24.34 -24 24 C-23.81924008 20.33124312 -22.830234 18.54903484 -20.19921875 16.140625 C-19.03917016 15.16443816 -17.86814083 14.2011786 -16.6875 13.25 C-15.81448242 12.50943359 -15.81448242 12.50943359 -14.92382812 11.75390625 C-10.51719485 8.11082325 -10.51719485 8.11082325 -7.86254883 7.54199219 C-7.24790771 7.36313477 -6.6332666 7.18427734 -6 7 C-5.67 6.01 -5.34 5.02 -5 4 C-3.37667033 2.61423077 -1.71275535 1.27358732 0 0 Z " fill="#0A646D" transform="translate(517,320)"/>
<path d="M0 0 C3.35627614 6.08408624 2.25004283 11.55552948 0.5 18 C0.00999881 19.66963368 -0.48655779 21.33742523 -1 23 C-1.33 22.34 -1.66 21.68 -2 21 C-3.32 21.33 -4.64 21.66 -6 22 C-5.59200675 13.97613274 -3.08963187 7.37635358 0 0 Z " fill="#2A8D46" transform="translate(842,522)"/>
<path d="M0 0 C-5.97538867 1.92244399 -11.90733016 2.78011678 -18.125 3.5625 C-20.06528468 3.81240457 -22.00539577 4.0636613 -23.9453125 4.31640625 C-25.22172607 4.47798218 -25.22172607 4.47798218 -26.52392578 4.64282227 C-28.21717267 4.88707588 -29.90343979 5.18390262 -31.57983398 5.52514648 C-35.00889896 6.19795304 -38.45523722 6.32540187 -41.9375 6.5 C-46.69072735 6.73965852 -51.30560279 7.19884053 -56 8 C-58.67810075 8.11196073 -61.31732686 8.04625299 -64 8 C-64.33 7.34 -64.66 6.68 -65 6 C-63.79690186 5.89453857 -62.59380371 5.78907715 -61.35424805 5.68041992 C-56.79293724 5.27880718 -52.23244202 4.86847723 -47.67211914 4.45581055 C-45.7165949 4.28001332 -43.76087019 4.10642872 -41.80493164 3.93530273 C-30.74729558 2.96623208 -19.79599565 1.83651127 -8.86515808 -0.13227844 C-3.30554576 -1.10184859 -3.30554576 -1.10184859 0 0 Z " fill="#7CBE34" transform="translate(636,737)"/>
<path d="M0 0 C1.10601563 -0.00845947 1.10601563 -0.00845947 2.234375 -0.01708984 C6.35369618 0.03804626 9.60800185 0.47851768 13.3125 2.3125 C9.92667222 3.44110926 8.71944237 3.05008546 5.3125 2.3125 C-0.69024559 1.9367823 -6.08059408 1.90954032 -11.6875 4.3125 C-12.533125 4.621875 -13.37875 4.93125 -14.25 5.25 C-23.00788215 9.06753837 -28.53198602 14.7511909 -32.05859375 23.58984375 C-32.26613281 24.15832031 -32.47367188 24.72679687 -32.6875 25.3125 C-33.0175 25.3125 -33.3475 25.3125 -33.6875 25.3125 C-33.53932546 18.34829655 -30.47576701 14.22606746 -25.6875 9.3125 C-17.65073079 2.68468139 -10.24969437 0.07587549 0 0 Z " fill="#81C133" transform="translate(1083.6875,356.6875)"/>
<path d="M0 0 C0.66 0 1.32 0 2 0 C1.33111978 2.00664066 0.66202456 4.01320979 -0.0078125 6.01953125 C-0.75562824 8.26592264 -1.49979473 10.51352934 -2.2421875 12.76171875 C-2.68228865 14.09114683 -3.12239282 15.42057391 -3.5625 16.75 C-3.97628906 18.00296875 -4.39007813 19.2559375 -4.81640625 20.546875 C-5.79698425 23.40770322 -6.84331461 26.20689796 -8 29 C-3.58634848 30.56175361 0.79236127 31.6738863 5.375 32.625 C7.24285156 33.01558594 7.24285156 33.01558594 9.1484375 33.4140625 C10.08945312 33.60742188 11.03046875 33.80078125 12 34 C12 34.33 12 34.66 12 35 C6.4978184 35.23136637 1.86146222 34.4350346 -3.4375 33 C-4.53481445 32.71382812 -4.53481445 32.71382812 -5.65429688 32.421875 C-7.43819666 31.95549597 -9.21939845 31.47881722 -11 31 C-8.98337791 24.07402968 -6.76666224 17.2425898 -4.375 10.4375 C-4.06304687 9.53708984 -3.75109375 8.63667969 -3.4296875 7.70898438 C-3.130625 6.85498047 -2.8315625 6.00097656 -2.5234375 5.12109375 C-2.25450684 4.3520874 -1.98557617 3.58308105 -1.70849609 2.79077148 C-1 1 -1 1 0 0 Z " fill="#153B84" transform="translate(444,689)"/>
<path d="M0 0 C7.59 0 15.18 0 23 0 C21.68 0.33 20.36 0.66 19 1 C19 1.66 19 2.32 19 3 C22.96 3 26.92 3 31 3 C31 3.33 31 3.66 31 4 C28.54203147 4.19436491 26.08390706 4.3807742 23.625 4.5625 C22.92632813 4.61857422 22.22765625 4.67464844 21.5078125 4.73242188 C16.2265625 5.11328125 16.2265625 5.11328125 14 4 C11.62597499 3.92883618 9.24999323 3.91590915 6.875 3.9375 C5.59367187 3.94652344 4.31234375 3.95554687 2.9921875 3.96484375 C2.00476563 3.97644531 1.01734375 3.98804688 0 4 C0 2.68 0 1.36 0 0 Z " fill="#00428A" transform="translate(499,714)"/>
<path d="M0 0 C21.78 0 43.56 0 66 0 C66 0.33 66 0.66 66 1 C64.81062836 1.01213028 64.81062836 1.01213028 63.597229 1.02450562 C56.12252853 1.10246606 48.64802285 1.18976099 41.17355728 1.28752708 C37.33091081 1.33746005 33.48829143 1.38379023 29.64550781 1.421875 C25.93658312 1.4587659 22.22788671 1.50513596 18.51915741 1.55806351 C17.10463213 1.57658729 15.69005795 1.59170272 14.27545929 1.60334396 C12.29324238 1.62024013 10.31115208 1.65040923 8.32910156 1.68115234 C7.20103088 1.69447601 6.07296021 1.70779968 4.91070557 1.7215271 C2.08051088 1.99229737 0.4027776 2.53225544 -2 4 C-1.34 2.68 -0.68 1.36 0 0 Z " fill="#6FBC21" transform="translate(963,282)"/>
<path d="M0 0 C5.61 0.33 11.22 0.66 17 1 C16.34 1.66 15.68 2.32 15 3 C15 4.32 15 5.64 15 7 C13.41532272 6.71572583 11.8322943 6.42225182 10.25 6.125 C9.36828125 5.96257813 8.4865625 5.80015625 7.578125 5.6328125 C5.08205062 5.0201397 3.15919108 4.39083029 1 3 C0.67 2.01 0.34 1.02 0 0 Z " fill="#489F4B" transform="translate(497,746)"/>
<path d="M0 0 C5.62332334 2.49925482 9.26234779 6.21113311 13 11 C15.55195846 13.68627207 18.1226507 16.0996537 21 18.4375 C24.12765715 21.10904048 26.43835299 23.79794124 29 27 C29.66 27.66 30.32 28.32 31 29 C27.1070899 29 26.04920143 27.40050477 23.3910675 24.75660706 C22.79408554 24.14727829 22.19710358 23.53794952 21.58203125 22.91015625 C20.96478683 22.29103867 20.34754242 21.67192108 19.71159363 21.03404236 C18.40780909 19.72353149 17.10762941 18.40942593 15.81079102 17.09204102 C13.81713667 15.06720918 11.81298662 13.05326481 9.80664062 11.04101562 C8.5436444 9.76885078 7.28125353 8.4960846 6.01953125 7.22265625 C5.11494926 6.31169945 5.11494926 6.31169945 4.1920929 5.38233948 C0 1.11713737 0 1.11713737 0 0 Z " fill="#3A9836" transform="translate(625,523)"/>
<path d="M0 0 C-0.33 0.33 -0.66 0.66 -1 1 C18.8 1.495 18.8 1.495 39 2 C39 2.33 39 2.66 39 3 C22.17 3 5.34 3 -12 3 C-3 -1.5 -3 -1.5 0 0 Z " fill="#E3ECF3" transform="translate(508,340)"/>
<path d="M0 0 C1.0621875 0.13277344 2.124375 0.26554688 3.21875 0.40234375 C4.24742187 0.53092773 4.24742187 0.53092773 5.296875 0.66210938 C10.6484375 1.33105469 10.6484375 1.33105469 16 2 C17.14662109 2.14332764 17.14662109 2.14332764 18.31640625 2.28955078 C21.15820312 2.64477539 21.15820312 2.64477539 24 3 C24 3.99 24 4.98 24 6 C18.17374616 7.64982916 14.09137972 6.0546336 8.625 4.0625 C7.79355469 3.77181641 6.96210938 3.48113281 6.10546875 3.18164062 C4.06598636 2.46664967 2.03236611 1.73497517 0 1 C0 0.67 0 0.34 0 0 Z " fill="#89CA39" transform="translate(458,736)"/>
<path d="M0 0 C0.66 0 1.32 0 2 0 C3.59412284 3.18824568 3.10174735 6.62896662 3.0625 10.125 C3.05798828 10.87910156 3.05347656 11.63320313 3.04882812 12.41015625 C3.03703499 14.27347127 3.01909942 16.13674555 3 18 C2.67 16.68 2.34 15.36 2 14 C1.34 14 0.68 14 0 14 C-1.80599669 9.53812584 -2.17034777 6.68139108 -1 2 C-0.67 1.34 -0.34 0.68 0 0 Z " fill="#0E6F3D" transform="translate(845,516)"/>
<path d="M0 0 C0.66 0.99 1.32 1.98 2 3 C-1.59082329 8.53749673 -4.36319385 12.20018816 -11 14 C-16.81721751 14.71189725 -20.90486391 14.13546836 -26 11 C-25.34 10.67 -24.68 10.34 -24 10 C-23.0925 10.309375 -22.185 10.61875 -21.25 10.9375 C-17.06467802 12.30577834 -14.04994133 12.98006719 -9.94921875 11.01953125 C-5.03368253 8.09896585 -1.84849227 5.54547682 0 0 Z " fill="#73B83E" transform="translate(1100,398)"/>
<path d="M0 0 C0 0.99 0 1.98 0 3 C-1.79296875 4.69140625 -1.79296875 4.69140625 -4.1875 6.5625 C-9.10534006 10.72792605 -11.58930491 15.08834572 -14 21 C-14.33 21 -14.66 21 -15 21 C-14.8518513 14.03701109 -11.72050424 9.9616302 -7 5 C-4.73843162 3.11463061 -2.49603329 1.5791231 0 0 Z " fill="#7DBF2D" transform="translate(1045,261)"/>
<path d="M0 0 C0.66 0.33 1.32 0.66 2 1 C1.67 4.3 1.34 7.6 1 11 C0.67 10.34 0.34 9.68 0 9 C-1.32 9.33 -2.64 9.66 -4 10 C-3.67 7.03 -3.34 4.06 -3 1 C-2.01 0.67 -1.02 0.34 0 0 Z " fill="#248839" transform="translate(840,534)"/>
<path d="M0 0 C0.66 0.33 1.32 0.66 2 1 C1.39671875 1.54527344 0.7934375 2.09054687 0.171875 2.65234375 C-5.14422996 7.66834601 -8.65040215 12.04979098 -11 19 C-11.33 19 -11.66 19 -12 19 C-11.85240689 12.0631237 -8.65958392 7.97794059 -4 3 C-2.69321055 1.96555371 -1.36694412 0.95354159 0 0 Z " fill="#74BA38" transform="translate(1062,363)"/>
<path d="M0 0 C1.69752187 0.25245197 3.38471545 0.57645775 5.0625 0.9375 C5.98160156 1.13214844 6.90070313 1.32679688 7.84765625 1.52734375 C8.91306641 1.76130859 8.91306641 1.76130859 10 2 C8.02 2.99 8.02 2.99 6 4 C6 4.66 6 5.32 6 6 C-3.59453303 4.25740319 -3.59453303 4.25740319 -7 1 C-5.5459375 1.0309375 -5.5459375 1.0309375 -4.0625 1.0625 C-1.12534105 1.35618499 -1.12534105 1.35618499 0 0 Z " fill="#71B432" transform="translate(492,743)"/>
<path d="M0 0 C0 3 0 3 -2.23046875 5.55859375 C-3.20852032 6.52599986 -4.1945766 7.48536421 -5.1875 8.4375 C-5.67025391 8.91509766 -6.15300781 9.39269531 -6.65039062 9.88476562 C-9.62211068 12.79266351 -12.712153 15.45747846 -16 18 C-16.66 17.67 -17.32 17.34 -18 17 C-13.76676966 12.64771006 -9.40978477 8.52677576 -4.796875 4.578125 C-3.12659942 3.11118731 -1.55211328 1.59043707 0 0 Z " fill="#0D75A0" transform="translate(763,586)"/>
<path d="M0 0 C0.66 0.33 1.32 0.66 2 1 C-1.65873411 4.761636 -5.38861558 8.44609619 -9.25 12 C-10.21679688 12.8971875 -10.21679688 12.8971875 -11.203125 13.8125 C-11.79609375 14.204375 -12.3890625 14.59625 -13 15 C-13.99 14.67 -14.98 14.34 -16 14 C-10.71333087 9.27676273 -5.39882424 4.59474404 0 0 Z " fill="#0F5198" transform="translate(520,294)"/>
<path d="M0 0 C6.93 0 13.86 0 21 0 C21.33 0.66 21.66 1.32 22 2 C14.66666667 2 7.33333333 2 0 2 C0 1.34 0 0.68 0 0 Z " fill="#268F5D" transform="translate(863,330)"/>
<path d="M0 0 C0.66 0.33 1.32 0.66 2 1 C0.86913662 4.39259014 -0.20932463 5.33037102 -2.875 7.625 C-3.57367187 8.23601563 -4.27234375 8.84703125 -4.9921875 9.4765625 C-7 11 -7 11 -10 12 C-8.52278578 8.54798361 -6.56205999 6.35038064 -3.875 3.75 C-3.15054688 3.04359375 -2.42609375 2.3371875 -1.6796875 1.609375 C-1.12539063 1.07828125 -0.57109375 0.5471875 0 0 Z " fill="#50A530" transform="translate(712,509)"/>
<path d="M0 0 C8.58 0 17.16 0 26 0 C26 0.33 26 0.66 26 1 C24.94087402 1.029729 24.94087402 1.029729 23.86035156 1.06005859 C20.65653006 1.15540415 17.45335199 1.26504513 14.25 1.375 C13.13882813 1.4059375 12.02765625 1.436875 10.8828125 1.46875 C9.27792969 1.52675781 9.27792969 1.52675781 7.640625 1.5859375 C6.65610352 1.6173584 5.67158203 1.6487793 4.65722656 1.68115234 C1.99147799 2.00102258 0.29383595 2.64368621 -2 4 C-1.34 2.68 -0.68 1.36 0 0 Z " fill="#65B529" transform="translate(963,282)"/>
<path d="M0 0 C1.258125 -0.04125 2.51625 -0.0825 3.8125 -0.125 C4.52019531 -0.14820313 5.22789062 -0.17140625 5.95703125 -0.1953125 C8 0 8 0 11 2 C10.67 2.66 10.34 3.32 10 4 C7.36 4 4.72 4 2 4 C1.34 2.68 0.68 1.36 0 0 Z " fill="#449D35" transform="translate(497,746)"/>
<path d="M0 0 C0 0.66 0 1.32 0 2 C-1.64453125 3.62109375 -1.64453125 3.62109375 -3.8125 5.4375 C-6.31102718 7.54463676 -8.7242056 9.65241398 -11 12 C-11.66 11.67 -12.32 11.34 -13 11 C-11.92173635 9.72486237 -10.83714481 8.45507431 -9.75 7.1875 C-9.14671875 6.47980469 -8.5434375 5.77210938 -7.921875 5.04296875 C-3.17782027 0 -3.17782027 0 0 0 Z " fill="#5BAC46" transform="translate(1087,461)"/>
<path d="M0 0 C0.66 0.33 1.32 0.66 2 1 C0.37660195 2.70884005 -1.29319053 4.37446717 -3 6 C-3.66 6 -4.32 6 -5 6 C-5.33 6.99 -5.66 7.98 -6 9 C-4.68 9.66 -3.36 10.32 -2 11 C-5 12 -5 12 -8 11 C-7.91433603 8.087425 -7.42089045 6.43201976 -5.375 4.33203125 C-3.61608625 2.83908228 -1.83686981 1.39563738 0 0 Z " fill="#01427E" transform="translate(501,333)"/>
<path d="M0 0 C0.66 0.33 1.32 0.66 2 1 C0.92492371 2.29854721 -0.16043736 3.58858361 -1.25 4.875 C-1.85328125 5.59429687 -2.4565625 6.31359375 -3.078125 7.0546875 C-6.01331179 10.02566925 -8.97073559 11.1365862 -13 12 C-11.37660195 10.29115995 -9.70680947 8.62553283 -8 7 C-7.34 7 -6.68 7 -6 7 C-5.67 6.01 -5.34 5.02 -5 4 C-3.37667033 2.61423077 -1.71275535 1.27358732 0 0 Z " fill="#03547B" transform="translate(517,320)"/>
<path d="M0 0 C0 3 0 3 -1.5 4.8125 C-4.8528167 7.74621461 -8.40012057 10.37872857 -12 13 C-12 12.01 -12 11.02 -12 10 C-9.62890625 7.7734375 -9.62890625 7.7734375 -6.5625 5.375 C-5.55316406 4.57835937 -4.54382813 3.78171875 -3.50390625 2.9609375 C-2.67761719 2.31382812 -1.85132813 1.66671875 -1 1 C-0.67 0.67 -0.34 0.34 0 0 Z " fill="#105A9A" transform="translate(552,267)"/>
<path d="M0 0 C0.66 0.33 1.32 0.66 2 1 C-2.11809731 4.61589032 -6.06534158 7.57922417 -11 10 C-11.99 9.67 -12.98 9.34 -14 9 C-11.71439353 7.4693001 -9.42237333 5.95034956 -7.125 4.4375 C-6.14853516 3.78104492 -6.14853516 3.78104492 -5.15234375 3.11132812 C-3.47374503 2.01245164 -1.73976613 0.9992182 0 0 Z " fill="#14609D" transform="translate(707,632)"/>
<path d="M0 0 C-4.97188399 2.76215777 -9.1989568 3.17119746 -14.8125 2.5625 C-15.78832031 2.46066406 -16.76414062 2.35882812 -17.76953125 2.25390625 C-18.87361328 2.12822266 -18.87361328 2.12822266 -20 2 C-20 1.67 -20 1.34 -20 1 C-6.3667426 -0.14806378 -6.3667426 -0.14806378 0 0 Z " fill="#8CC743" transform="translate(611,740)"/>
<path d="M0 0 C0 3 0 3 -1.4609375 4.82421875 C-2.09257813 5.43910156 -2.72421875 6.05398438 -3.375 6.6875 C-4.00148438 7.31011719 -4.62796875 7.93273437 -5.2734375 8.57421875 C-7 10 -7 10 -9 10 C-7.61811547 6.78956118 -6.07578097 4.95063635 -3.375 2.75 C-2.74335937 2.22921875 -2.11171875 1.7084375 -1.4609375 1.171875 C-0.73777344 0.59179688 -0.73777344 0.59179688 0 0 Z " fill="#128993" transform="translate(839,488)"/>
<path d="M0 0 C0.33 0.99 0.66 1.98 1 3 C-1.31 5.31 -3.62 7.62 -6 10 C-6.99 9.67 -7.98 9.34 -9 9 C-6.03 6.03 -3.06 3.06 0 0 Z " fill="#82C43B" transform="translate(767,454)"/>
<path d="M0 0 C-3.06117568 2.62386487 -3.73173127 3 -8 3 C-9.41904676 3.14501208 -10.83607595 3.31147679 -12.25 3.5 C-13.4875 3.665 -14.725 3.83 -16 4 C-13.41588269 2.27725513 -11.45097344 1.31104478 -8.5625 0.3125 C-7.41974609 -0.09548828 -7.41974609 -0.09548828 -6.25390625 -0.51171875 C-3.78170279 -1.04729142 -2.37016716 -0.80445309 0 0 Z " fill="#2961A0" transform="translate(627,676)"/>
<path d="M0 0 C0.33 0.99 0.66 1.98 1 3 C-2.3 5.64 -5.6 8.28 -9 11 C-9 8 -9 8 -7.03125 5.95703125 C-6.1959375 5.24933594 -5.360625 4.54164063 -4.5 3.8125 C-3.6646875 3.09707031 -2.829375 2.38164062 -1.96875 1.64453125 C-1.3190625 1.10183594 -0.669375 0.55914062 0 0 Z " fill="#0A4691" transform="translate(501,310)"/>
<path d="M0 0 C-0.33 0.99 -0.66 1.98 -1 3 C-4.63 3 -8.26 3 -12 3 C-3 -1.5 -3 -1.5 0 0 Z " fill="#D1DFE4" transform="translate(508,340)"/>
<path d="M0 0 C2.97 0 5.94 0 9 0 C8.01 0.33 7.02 0.66 6 1 C4.79117904 3.00016466 4.79117904 3.00016466 4 5 C3.01 4.67 2.02 4.34 1 4 C0.67 2.68 0.34 1.36 0 0 Z " fill="#349649" transform="translate(511,748)"/>
<path d="M0 0 C-4.02167317 2.96837781 -7.00088076 4.52389341 -12 5 C-3.89473684 -1.94736842 -3.89473684 -1.94736842 0 0 Z " fill="#175B9A" transform="translate(677,653)"/>
<path d="M0 0 C0.33 0 0.66 0 1 0 C1.185625 1.5778125 1.185625 1.5778125 1.375 3.1875 C1.91140782 6.45958771 2.63880035 9.00536076 4 12 C0.92203555 9.5177706 0.05603723 8.25432283 -0.8125 4.3125 C-0.874375 3.219375 -0.93625 2.12625 -1 1 C-0.67 0.67 -0.34 0.34 0 0 Z " fill="#359679" transform="translate(879,438)"/>
<path d="M0 0 C0.66 0.66 1.32 1.32 2 2 C-1.465 4.97 -1.465 4.97 -5 8 C-3.95206337 3.80825346 -3.08236365 2.78407039 0 0 Z " fill="#49A326" transform="translate(626,482)"/>
<path d="M0 0 C0.33 0.66 0.66 1.32 1 2 C-0.65 3.98 -2.3 5.96 -4 8 C-4.99 7.67 -5.98 7.34 -7 7 C-4.69 4.69 -2.38 2.38 0 0 Z " fill="#79BF3C" transform="translate(757,464)"/>
<path d="M0 0 C0.33 0.99 0.66 1.98 1 3 C0.01 3.33 -0.98 3.66 -2 4 C-3.20882096 6.00016466 -3.20882096 6.00016466 -4 8 C-4.99 7.67 -5.98 7.34 -7 7 C-4.69 4.69 -2.38 2.38 0 0 Z " fill="#8AC83B" transform="translate(775,446)"/>
<path d="M0 0 C0.99 0.33 1.98 0.66 3 1 C1.35 2.98 -0.3 4.96 -2 7 C-2.66 6.01 -3.32 5.02 -4 4 C-2.68 2.68 -1.36 1.36 0 0 Z " fill="#158B84" transform="translate(566,280)"/>
<path d="M0 0 C4.29 0.33 8.58 0.66 13 1 C13 1.33 13 1.66 13 2 C4.57142857 3.42857143 4.57142857 3.42857143 0 1 C0 0.67 0 0.34 0 0 Z " fill="#1F8C56" transform="translate(517,749)"/>
<path d="M0 0 C1.32 0 2.64 0 4 0 C4 0.99 4 1.98 4 3 C1.1875 3.625 1.1875 3.625 -2 4 C-2.99 3.34 -3.98 2.68 -5 2 C-3.68 2 -2.36 2 -1 2 C-0.67 1.34 -0.34 0.68 0 0 Z " fill="#94C83F" transform="translate(478,739)"/>
<path d="M0 0 C-1.28519565 2.86697492 -2.57129254 4.97607712 -5 7 C-5.66 7 -6.32 7 -7 7 C-3.86206897 0 -3.86206897 0 0 0 Z " fill="#1681A2" transform="translate(978,538)"/>
<path d="M0 0 C0.66 0.99 1.32 1.98 2 3 C0.35 4.65 -1.3 6.3 -3 8 C-3 6.33333333 -3 4.66666667 -3 3 C-2.34 3 -1.68 3 -1 3 C-0.67 2.01 -0.34 1.02 0 0 Z " fill="#2A9987" transform="translate(562,285)"/>
<path d="M0 0 C0.66 0.33 1.32 0.66 2 1 C-1.465 3.97 -1.465 3.97 -5 7 C-5.66 6.67 -6.32 6.34 -7 6 C-4.69 4.02 -2.38 2.04 0 0 Z " fill="#0F5496" transform="translate(537,280)"/>
<path d="M0 0 C0.33 0 0.66 0 1 0 C2.07421875 5.859375 2.07421875 5.859375 2 8 C1.01 9.32 0.02 10.64 -1 12 C-0.67 8.04 -0.34 4.08 0 0 Z " fill="#479C5D" transform="translate(831,559)"/>
<path d="M0 0 C-1.15173355 2.46800047 -2.04783565 4.04783565 -4 6 C-4.99 5.67 -5.98 5.34 -7 5 C-2.25 0 -2.25 0 0 0 Z " fill="#15589F" transform="translate(511,303)"/>
</svg>
